<?xml version="1.0" standalone="no"?>
<!DOCTYPE svg PUBLIC "-//W3C//DTD SVG 20010904//EN"
 "http://www.w3.org/TR/2001/REC-SVG-20010904/DTD/svg10.dtd">
<svg version="1.0" xmlns="http://www.w3.org/2000/svg"
 width="48.000000pt" height="48.000000pt" viewBox="0 0 48.000000 48.000000"
 preserveAspectRatio="xMidYMid meet">
<metadata>
Created by potrace 1.10, written by Peter Selinger 2001-2011
</metadata>
<g transform="translate(0.000000,48.000000) scale(0.100000,-0.100000)"
fill="#eceb12" stroke="none">
<path d="M197 370 l-26 -60 -49 0 c-56 0 -82 -7 -82 -22 0 -6 21 -29 46 -51
50 -44 49 -40 28 -144 -6 -28 -4 -33 13 -33 10 0 40 13 66 30 l47 30 47 -30
c26 -17 56 -30 66 -30 17 0 19 5 13 33 -21 105 -22 101 28 143 68 57 60 74
-36 74 l-50 0 -26 60 c-17 37 -33 60 -43 60 -10 0 -25 -22 -42 -60z"/>
</g>
</svg>
