<svg xmlns="http://www.w3.org/2000/svg" xmlns:xlink="http://www.w3.org/1999/xlink" height="100%" viewBox="0, 0, 400,416.1785216178522" version="1.1">
<g>
<path d="M226.262 13.424 C 222.337 13.709,219.093 14.000,219.053 14.071 C 218.840 14.455,214.040 27.789,212.413 32.516 C 210.086 39.281,210.000 39.119,210.000 27.930 C 210.000 
13.921,210.538 14.752,202.800 16.814 C 201.150 17.254,198.450 17.962,196.800 18.387 C 190.845 19.923,181.230 23.536,178.884 25.119 C 178.487 25.386,178.962 26.711,180.933 30.834 
C 182.344 33.785,183.636 36.650,183.803 37.200 C 183.971 37.750,184.271 38.305,184.471 38.434 C 184.960 38.749,187.238 43.600,186.897 43.600 C 186.749 43.600,183.370 
40.360,179.389 36.400 C 171.543 28.595,171.710 28.691,168.536 30.169 C 166.317 31.202,156.945 37.029,156.730 37.510 C 156.659 37.669,155.340 38.647,153.800 39.683 C 145.647 
45.167,145.559 45.504,150.600 52.000 C 153.957 56.326,155.443 58.899,153.900 57.714 C 146.359 51.924,142.866 49.796,141.475 50.145 C 140.171 50.473,129.289 62.267,125.483 
67.476 L 123.967 69.552 125.471 71.676 C 126.298 72.844,127.950 75.020,129.142 76.512 C 132.046 80.146,131.611 80.205,126.715 76.841 C 121.869 73.513,121.599 73.467,119.947 
75.700 C 118.574 77.555,110.880 93.060,110.370 95.000 C 110.196 95.660,109.576 97.460,108.991 99.000 C 106.830 104.693,103.848 116.570,102.965 123.000 C 102.814 124.100,102.540 
125.404,102.356 125.898 C 101.999 126.855,100.635 139.956,100.200 146.600 C 99.708 154.134,97.714 161.762,95.045 166.329 C 91.248 172.825,90.045 174.385,84.260 180.314 C 78.415 
186.306,77.564 187.460,79.877 186.264 C 80.510 185.936,81.741 185.541,82.614 185.386 C 93.366 183.469,108.030 168.008,113.141 153.200 C 113.894 151.017,118.314 140.039,119.985 
136.200 C 128.340 117.006,142.848 97.131,154.002 89.600 C 154.816 89.050,157.142 87.475,159.170 86.100 C 161.198 84.725,162.917 83.600,162.990 83.600 C 163.063 83.600,164.175 
83.007,165.462 82.283 C 166.748 81.559,169.510 80.226,171.600 79.321 C 177.338 76.837,180.435 75.764,189.200 73.218 C 195.337 71.435,216.000 69.496,216.000 70.703 C 216.000 
71.174,214.582 71.431,209.830 71.821 C 208.087 71.964,205.747 72.330,204.630 72.634 C 203.514 72.937,200.800 73.648,198.600 74.214 C 179.817 79.041,159.252 92.465,149.138 106.500
C 147.682 108.521,148.856 107.635,153.379 103.300 C 158.953 97.957,166.434 92.672,172.600 89.722 C 173.700 89.196,174.870 88.601,175.200 88.401 C 194.656 76.595,231.790 
75.030,260.617 84.800 C 264.568 86.139,268.340 87.384,269.000 87.567 C 270.847 88.079,279.259 92.265,284.600 95.330 C 289.638 98.221,290.742 99.030,295.572 103.369 C 298.965 
106.418,300.179 106.686,301.156 104.600 C 301.624 103.600,307.653 94.925,314.969 84.726 C 315.866 83.475,317.950 80.520,319.600 78.158 C 321.250 75.797,324.048 71.870,325.817 
69.432 C 327.586 66.994,330.449 62.930,332.180 60.400 C 333.910 57.870,336.343 54.450,337.586 52.800 C 343.505 44.944,343.536 44.732,339.126 42.345 C 337.354 41.385,335.578 
40.298,335.180 39.928 C 332.517 37.456,328.782 36.357,327.855 37.773 C 327.504 38.308,323.838 42.317,319.709 46.681 C 315.579 51.046,310.985 55.956,309.500 57.593 C 308.015 
59.229,306.800 60.463,306.800 60.334 C 306.800 59.865,308.873 55.432,312.244 48.691 C 320.493 32.195,320.493 32.196,316.100 30.165 C 307.073 25.991,282.871 18.000,279.255 18.000 
C 278.699 18.000,278.472 20.672,278.018 32.515 C 277.563 44.404,277.323 45.424,276.042 40.930 C 275.551 39.209,274.357 35.280,273.389 32.200 C 270.275 22.293,270.010 21.409,270.005 
20.875 C 269.994 19.713,267.872 15.932,267.059 15.624 C 265.760 15.133,257.515 14.061,253.000 13.797 C 250.800 13.668,248.298 13.460,247.440 13.336 L 245.881 13.110 246.155 14.655 
C 246.306 15.505,246.775 18.810,247.197 22.000 C 247.619 25.190,248.224 29.150,248.542 30.800 C 249.169 34.050,248.824 35.983,248.007 33.800 C 247.517 32.489,247.347 32.120,243.273 
23.554 C 241.744 20.338,239.998 16.603,239.392 15.254 L 238.291 12.800 235.845 12.853 C 234.500 12.883,230.188 13.140,226.262 13.424 M198.800 86.010 C 189.591 87.995,188.165 88.420,178.893 
91.937 C 176.490 92.849,169.317 96.599,168.369 97.440 C 168.021 97.748,167.571 98.000,167.369 98.001 C 166.870 98.002,162.400 100.983,161.386 101.991 C 160.938 102.436,160.425 102.800,160.245 
102.800 C 159.529 102.800,153.522 108.195,148.600 113.257 C 138.116 124.040,130.603 136.443,125.979 150.600 C 125.261 152.800,124.522 154.913,124.337 155.295 C 122.888 158.285,124.621 
157.471,126.592 154.237 C 131.291 146.521,150.400 125.952,150.400 128.609 C 150.400 128.724,149.616 130.839,148.658 133.309 C 145.628 141.119,144.843 143.620,143.670 149.200 C 141.873 
157.746,141.562 171.974,142.989 180.400 C 145.005 192.307,143.675 211.248,139.991 223.109 C 139.531 224.589,138.906 226.880,138.603 228.200 C 138.299 229.520,137.764 231.500,137.415 
232.600 C 137.065 233.700,136.220 236.400,135.536 238.600 C 134.853 240.800,133.688 244.328,132.947 246.440 C 130.806 252.544,130.663 252.360,136.800 251.400 C 138.890 251.073,142.580 
250.621,145.000 250.396 C 147.420 250.171,152.190 249.697,155.600 249.342 C 167.389 248.115,193.762 249.232,203.400 251.366 C 204.940 251.707,206.710 251.989,207.333 251.993 C 207.957 
251.997,209.913 252.369,211.680 252.820 C 216.411 254.028,217.212 256.032,203.686 232.821 C 198.372 223.703,194.123 216.144,194.242 216.024 C 194.362 215.905,195.211 216.619,196.130 
217.611 C 199.726 221.497,209.294 232.197,217.581 241.600 C 229.628 255.268,234.871 260.041,246.800 268.198 C 254.436 273.419,262.562 280.720,270.842 289.800 C 273.837 293.084,275.962 
294.871,276.488 294.546 C 276.804 294.350,276.853 289.076,276.664 275.837 C 276.518 265.697,276.280 248.722,276.135 238.116 L 275.870 218.831 271.835 215.149 C 259.894 204.251,253.902 
196.001,250.810 186.200 C 250.324 184.660,249.740 182.950,249.511 182.400 C 248.187 179.215,246.728 156.000,247.852 156.000 C 248.060 156.000,248.789 156.945,249.470 158.100 C 252.309 
162.910,256.622 170.381,261.884 179.600 C 264.961 184.990,268.212 190.660,269.108 192.200 C 270.005 193.740,272.328 197.752,274.269 201.115 C 280.191 211.373,280.316 211.395,281.613 
202.406 C 282.072 199.223,282.522 196.544,282.613 196.454 C 283.405 195.661,283.741 199.612,283.769 210.040 L 283.800 221.480 281.170 225.440 C 279.723 227.618,278.245 229.853,277.885 
230.406 C 276.879 231.954,288.384 246.495,289.508 245.095 C 290.365 244.027,292.958 230.044,294.190 219.845 C 294.512 217.180,295.159 212.660,295.628 209.800 C 296.630 203.696,297.227
170.134,296.468 162.600 C 295.680 154.783,293.251 142.318,292.337 141.404 C 292.221 141.287,289.892 140.751,287.163 140.213 C 280.540 138.905,266.702 136.025,266.200 135.849 C 265.778 
135.701,267.986 135.508,277.849 134.830 C 285.063 134.334,289.856 133.091,289.719 131.752 C 289.621 130.795,285.609 122.349,283.665 119.005 C 273.492 101.514,253.677 88.441,233.071 85.627 C 227.505 84.867,202.822 85.143,198.800 86.010 M253.800 210.650 C 256.660 213.198,260.996 216.961,263.436 219.011 L 267.872 222.739 268.144 236.070 C 268.410 249.141,268.230 254.589,267.544 254.165 C 267.355 254.049,267.200 253.261,267.200 252.416 C 267.200 250.973,265.488 233.141,264.971 229.200 C 264.476 225.421,263.759 224.085,260.134 220.179 C 258.665 218.597,249.231 208.062,248.238 206.895 C 246.190 204.490,249.063 206.429,253.800 210.650 M156.600 260.874 C 137.745 261.597,120.163 264.597,105.342 269.620 C 102.734 270.504,99.790 271.464,98.800 271.753 C 97.810 272.042,96.251 272.661,95.335 273.129 C 94.419 273.597,92.439 274.443,90.935 275.009 C 85.085 277.210,68.837 286.474,63.812 290.473 C 54.207 298.120,40.800 312.699,40.800 315.499 C 40.800 315.707,40.465 316.180,40.055 316.551 C 38.833 317.656,35.256 325.389,35.741 325.874 C 35.878 326.011,38.200 323.980,40.901 321.362 C 46.815 315.628,53.417 310.450,59.158 307.043 C 66.700 302.567,82.368 295.020,86.200 294.018 C 86.860 293.846,88.570 293.243,90.000 292.680 C 92.987 291.502,104.153 287.966,108.000 286.978 C 120.775 283.700,126.614 282.597,140.770 280.789 C 145.924 280.131,150.874 279.379,151.770 279.117 C 154.591 278.294,205.550 278.471,210.400 279.321 C 214.034 279.957,216.893 280.347,224.400 281.227 C 232.331 282.156,251.971 286.293,257.504 288.200 C 263.523 290.274,262.214 288.133,255.156 284.358 C 254.581 284.051,253.321 283.266,252.356 282.614 C 250.665 281.472,240.645 276.310,238.192 275.318 C 237.536 275.053,235.700 274.286,234.111 273.613 C 212.626 264.522,184.027 259.822,156.600 260.874 M141.600 289.996 C 133.641 290.599,112.966 294.070,110.851 295.159 C 110.493 295.344,109.480 295.622,108.600 295.778 C 106.076 296.224,90.290 301.287,88.484 302.229 C 87.888 302.540,87.197 302.796,86.950 302.798 C 84.842 302.809,64.616 313.467,58.922 317.568 C 25.556 341.594,14.469 372.375,28.509 402.000 C 30.054 405.260,30.635 404.660,29.212 401.274 C 24.249 389.471,27.343 367.908,35.222 359.389 C 35.635 358.943,36.384 357.818,36.886 356.891 C 48.358 335.711,100.998 310.404,144.000 305.396 C 145.210 305.255,148.810 304.711,152.000 304.187 C 155.359 303.636,161.335 303.054,166.200 302.806 C 170.820 302.570,176.310 302.164,178.400 301.903 C 183.281 301.296,201.345 301.296,206.800 301.904 C 209.110 302.162,214.600 302.568,219.000 302.806 C 223.400 303.045,228.564 303.499,230.476 303.816 C 238.063 305.072,242.694 305.022,239.700 303.715 C 226.716 298.048,210.802 293.915,189.800 290.755 C 183.658 289.830,150.651 289.311,141.600 289.996 " stroke="none" fill-rule="evenodd">
</path></g></svg>