<svg id="svg" xmlns="http://www.w3.org/2000/svg" xmlns:xlink="http://www.w3.org/1999/xlink"
width="38px" height="38px" viewBox="0, 0, 400,400">
<g>
<path d="M186.856 2.477 C 185.285 4.048,184.000 11.333,184.000 18.667 C 184.000 28.042,182.160 32.000,177.801 32.000 C 135.245 32.000,107.365
77.834,104.806 152.000 L 102.944 206.000 69.981 240.000 C 34.140 276.968,26.350 288.499,29.822 299.439 C 44.876 346.871,305.949 354.867,359.810 309.546 C
378.049 294.199,375.440 287.510,334.550 244.779 L 297.099 205.643 295.228 151.822 C 292.665 78.120,264.633 32.000,222.401 32.000 C 218.450 32.000,216.070
27.015,215.241 17.000 C 214.017 2.201,196.232 -6.899,186.856 2.477 M170.825 354.508 C 164.985 360.348,168.235 382.744,176.156 391.246 C 196.023
412.570,233.603 396.728,231.185 368.048 L 230.000 354.000 201.825 352.841 C 186.329 352.204,172.379 352.954,170.825 354.508 "
fill="currentColor" stroke="currentColor">
</path>
</g>
</svg>