<?xml version="1.0" standalone="no"?>
<!DOCTYPE svg PUBLIC "-//W3C//DTD SVG 20010904//EN"
 "http://www.w3.org/TR/2001/REC-SVG-20010904/DTD/svg10.dtd">
<svg version="1.0" xmlns="http://www.w3.org/2000/svg"
 width="90.000000pt" height="90.000000pt" viewBox="0 0 90.000000 90.000000"
 preserveAspectRatio="xMidYMid meet">
<metadata>
Created by potrace 1.10, written by Peter Selinger 2001-2011
</metadata>
<g transform="translate(0.000000,90.000000) scale(0.100000,-0.100000)"
fill="#000000" stroke="none">
<path d="M358 812 c-79 -38 -117 -93 -127 -187 -6 -60 -6 -60 -41 -63 -19 -2
-45 -13 -57 -24 -22 -21 -23 -27 -23 -218 0 -192 0 -197 23 -218 20 -19 35
-22 105 -22 87 0 96 6 67 44 -20 26 -19 66 1 96 25 38 117 130 129 130 6 0 16
5 22 11 41 41 203 63 253 34 51 -29 60 -22 60 53 0 58 -3 72 -22 90 -13 11
-39 22 -58 24 -35 3 -35 3 -41 63 -10 95 -44 142 -136 189 -42 21 -108 20
-155 -2z m152 -63 c50 -28 82 -86 78 -141 l-3 -43 -145 0 -145 0 -3 46 c-8
117 116 195 218 138z"/>
<path d="M512 322 c-63 -32 -162 -126 -162 -153 0 -25 124 -149 149 -149 11 0
23 -4 26 -10 8 -13 182 -13 190 0 3 6 15 10 25 10 11 0 47 27 81 60 34 33 65
60 70 60 5 0 9 14 9 30 0 18 -5 30 -13 30 -7 0 -24 12 -37 28 -104 116 -228
150 -338 94z m190 -72 c31 -33 38 -48 38 -80 0 -33 -7 -47 -40 -80 -33 -33
-47 -40 -80 -40 -32 0 -47 7 -80 38 -34 33 -40 45 -40 80 0 36 6 48 40 82 34
34 46 40 82 40 35 0 47 -6 80 -40z"/>
<path d="M582 207 c-28 -30 -28 -48 1 -75 30 -28 48 -28 75 1 28 30 28 48 -1
75 -30 28 -48 28 -75 -1z"/>
</g>
</svg>
