<svg version="1.0" xmlns="http://www.w3.org/2000/svg"
 width="64.000000px" height="64.000000px" viewBox="0 0 144.000000 144.000000"
 preserveAspectRatio="xMidYMid meet">
<g transform="translate(0.000000,144.000000) scale(0.100000,-0.100000)" stroke="none">
<path d="M170 1253 l-30 -28 0 -530 c-1 -292 -1 -536 0 -542 0 -14 30 -18 30
-5 0 9 67 78 168 175 l61 57 413 0 414 0 27 28 27 28 0 394 0 394 -27 28 -27
28 -513 0 -513 0 -30 -27z m990 -90 l39 -37 1 -296 c0 -253 -2 -298 -15 -317
-9 -13 -22 -23 -29 -23 -8 0 -19 -6 -25 -14 -10 -12 -71 -15 -361 -16 l-349 0
-63 -30 c-35 -16 -77 -32 -94 -36 -28 -5 -32 -3 -38 21 -4 14 -6 178 -6 363
l1 336 37 42 37 42 413 1 413 0 39 -36z"/>
<path d="M381 924 c-58 -41 -62 -134 -8 -180 44 -37 109 -29 154 20 40 43 69
54 77 28 13 -41 54 -66 106 -66 52 0 93 25 106 66 8 26 19 23 67 -21 31 -29
54 -41 88 -46 42 -6 50 -4 78 22 23 21 33 40 37 75 6 44 4 50 -29 83 -29 29
-42 35 -76 35 -34 0 -49 -7 -85 -40 -24 -22 -48 -40 -54 -40 -7 0 -27 17 -46
38 -31 34 -39 37 -86 37 -47 0 -55 -3 -86 -37 -19 -21 -39 -38 -46 -38 -6 0
-30 18 -54 40 -35 32 -51 40 -82 40 -20 0 -48 -7 -61 -16z m109 -44 c43 -43
11 -120 -50 -120 -38 0 -70 32 -70 70 0 38 32 70 70 70 17 0 39 -9 50 -20z
m267 -2 c29 -27 29 -65 1 -95 -43 -46 -118 -16 -118 47 0 62 71 92 117 48z
m273 2 c11 -11 20 -33 20 -50 0 -17 -9 -39 -20 -50 -11 -11 -33 -20 -50 -20
-17 0 -39 9 -50 20 -11 11 -20 33 -20 50 0 17 9 39 20 50 11 11 33 20 50 20
17 0 39 -9 50 -20z"/>
</g>
</svg>
