<svg xmlns="http://www.w3.org/2000/svg" xmlns:xlink="http://www.w3.org/1999/xlink" width="36px" height="36px" viewBox="0,0,400,400"><g>
<path d="M62.500 203.125 L 62.500 375.000 145.313 374.939 C 288.884 374.833,355.848 320.238,356.052 203.125 C 356.255 86.404,289.036 
31.625,145.313 31.387 L 62.500 31.250 62.500 203.125 M243.393 59.790 C 258.665 65.995,267.805 72.190,263.705 73.557 C 252.591 77.261,254.682 
90.393,268.356 102.769 C 282.294 115.382,294.820 110.904,289.770 95.112 C 284.003 77.079,312.150 113.158,325.277 140.625 C 379.114 253.272,296.631 
354.463,145.538 361.131 L 75.000 364.244 75.000 203.125 L 75.000 42.006 145.313 45.257 C 192.131 47.422,224.903 52.278,243.393 59.790 M125.000 
203.125 L 125.000 338.911 168.481 336.454 C 338.184 326.865,338.184 79.385,168.481 69.796 L 125.000 67.339 125.000 203.125 M212.167 99.415 C 
317.324 152.328,284.801 302.740,164.063 321.886 L 137.500 326.099 137.500 203.125 L 137.500 80.151 164.063 84.364 C 178.672 86.680,200.319 
93.454,212.167 99.415 M287.500 119.583 C 287.500 136.307,308.373 181.578,314.992 179.209 C 323.340 176.223,321.371 153.943,310.854 132.389 C 
302.334 114.928,287.500 106.793,287.500 119.583 M225.227 140.351 C 214.932 152.756,223.041 165.656,234.931 155.788 C 244.666 147.709,246.902 
131.250,238.265 131.250 C 235.249 131.250,229.382 135.346,225.227 140.351 M234.375 168.750 C 232.251 172.188,232.087 177.548,234.012 180.663 C 
239.172 189.012,262.500 181.219,262.500 171.146 C 262.500 161.242,240.190 159.342,234.375 168.750 M235.587 197.747 C 229.070 204.263,237.324 
212.500,250.369 212.500 C 257.041 212.500,262.500 208.281,262.500 203.125 C 262.500 193.855,243.313 190.020,235.587 197.747 M231.250 233.646 C 
231.250 243.719,254.578 251.512,259.738 243.163 C 265.185 234.349,256.766 225.000,243.381 225.000 C 236.709 225.000,231.250 228.891,231.250 233.646 
M219.817 260.298 C 221.028 266.586,227.164 272.722,233.452 273.933 C 241.709 275.523,244.273 272.959,242.683 264.702 C 241.472 258.414,235.336 
252.278,229.048 251.067 C 220.791 249.477,218.227 252.041,219.817 260.298"></path></g></svg>