<svg xmlns="http://www.w3.org/2000/svg" viewBox="138.39312744140625 37.39619140625 223.2137451171875 75.2076171875" style="background: rgba(0, 0, 0, 0);" preserveAspectRatio="xMidYMid"><filter id="editing-goldstamp"><feFlood flood-color="#ffffff" result="flood"></feFlood><feMorphology operator="dilate" radius="1" in="SourceGraphic" result="outline"></feMorphology><feComposite operator="in" in="flood" in2="outline" result="outline2"></feComposite><feGaussianBlur stdDeviation="4" in="SourceAlpha" result="blur"></feGaussianBlur><feSpecularLighting surfaceScale="2" specularConstant="0.7" specularExponent="10" lighting-color="#white" in="blur" result="specular"><fePointLight x="200" y="-1000" z="300"></fePointLight></feSpecularLighting><feComposite operator="in" in="specular" in2="SourceGraphic" result="specular2"></feComposite><feComposite in="SourceGraphic" in2="specular2" operator="arithmetic" k1="3" k2="2" k3="1" k4="0" result="specular3"></feComposite><feMerge><feMergeNode in="outline2"></feMergeNode><feMergeNode in="specular3"></feMergeNode></feMerge></filter><g filter="url(#editing-goldstamp)"><g transform="translate(174.5378155708313, 86.20499992370605)"><path d="M20.78-13.25L20.78-9.16L7.95-9.16L7.95-13.25L20.78-13.25ZM22.61-4.06L22.61 0L7.95 0L7.95 0Q7.11 0 6.11-0.30L6.11-0.30L6.11-0.30Q5.11-0.59 4.26-1.27L4.26-1.27L4.26-1.27Q3.41-1.95 2.84-3.04L2.84-3.04L2.84-3.04Q2.27-4.13 2.27-5.70L2.27-5.70L2.27-20.36L2.27-20.36Q2.27-20.78 2.42-21.16L2.42-21.16L2.42-21.16Q2.58-21.53 2.85-21.81L2.85-21.81L2.85-21.81Q3.13-22.09 3.50-22.25L3.50-22.25L3.50-22.25Q3.88-22.41 4.31-22.41L4.31-22.41L22.61-22.41L22.61-18.34L6.33-18.34L6.33-5.70L6.33-5.70Q6.33-4.91 6.75-4.48L6.75-4.48L6.75-4.48Q7.17-4.06 7.98-4.06L7.98-4.06L22.61-4.06ZM48.52-20.36L48.52 0L44.45 0L44.45-5.50L30.17-5.50L30.17 0L26.11 0L26.11-11.20L26.11-11.20Q26.11-13.66 26.95-15.72L26.95-15.72L26.95-15.72Q27.80-17.78 29.30-19.27L29.30-19.27L29.30-19.27Q30.80-20.75 32.84-21.58L32.84-21.58L32.84-21.58Q34.89-22.41 37.31-22.41L37.31-22.41L46.47-22.41L46.47-22.41Q46.89-22.41 47.27-22.25L47.27-22.25L47.27-22.25Q47.64-22.09 47.92-21.81L47.92-21.81L47.92-21.81Q48.20-21.53 48.36-21.16L48.36-21.16L48.36-21.16Q48.52-20.78 48.52-20.36L48.52-20.36ZM30.17-11.20L30.17-9.56L44.45-9.56L44.45-18.34L37.31-18.34L37.31-18.34Q37.13-18.34 36.52-18.29L36.52-18.29L36.52-18.29Q35.92-18.23 35.13-18.02L35.13-18.02L35.13-18.02Q34.34-17.80 33.47-17.34L33.47-17.34L33.47-17.34Q32.59-16.89 31.86-16.09L31.86-16.09L31.86-16.09Q31.13-15.30 30.65-14.10L30.65-14.10L30.65-14.10Q30.17-12.91 30.17-11.20L30.17-11.20ZM74.77-6.59L74.77-6.59L74.77-6.59Q74.77-5.39 74.46-4.43L74.46-4.43L74.46-4.43Q74.16-3.47 73.66-2.73L73.66-2.73L73.66-2.73Q73.16-2 72.48-1.48L72.48-1.48L72.48-1.48Q71.81-0.97 71.09-0.64L71.09-0.64L71.09-0.64Q70.38-0.31 69.63-0.16L69.63-0.16L69.63-0.16Q68.89 0 68.23 0L68.23 0L52.56 0L52.56-4.06L68.23-4.06L68.23-4.06Q69.41-4.06 70.05-4.75L70.05-4.75L70.05-4.75Q70.70-5.44 70.70-6.59L70.70-6.59L70.70-6.59Q70.70-7.16 70.53-7.63L70.53-7.63L70.53-7.63Q70.36-8.09 70.04-8.44L70.04-8.44L70.04-8.44Q69.72-8.78 69.26-8.97L69.26-8.97L69.26-8.97Q68.80-9.16 68.23-9.16L68.23-9.16L58.89-9.16L58.89-9.16Q57.91-9.16 56.77-9.51L56.77-9.51L56.77-9.51Q55.63-9.86 54.65-10.64L54.65-10.64L54.65-10.64Q53.67-11.42 53.02-12.69L53.02-12.69L53.02-12.69Q52.38-13.95 52.38-15.78L52.38-15.78L52.38-15.78Q52.38-17.61 53.02-18.87L53.02-18.87L53.02-18.87Q53.67-20.13 54.65-20.91L54.65-20.91L54.65-20.91Q55.63-21.70 56.77-22.05L56.77-22.05L56.77-22.05Q57.91-22.41 58.89-22.41L58.89-22.41L72.72-22.41L72.72-18.34L58.89-18.34L58.89-18.34Q57.73-18.34 57.09-17.64L57.09-17.64L57.09-17.64Q56.44-16.94 56.44-15.78L56.44-15.78L56.44-15.78Q56.44-14.61 57.09-13.93L57.09-13.93L57.09-13.93Q57.73-13.25 58.89-13.25L58.89-13.25L68.23-13.25L68.27-13.25L68.27-13.25Q68.92-13.23 69.66-13.07L69.66-13.07L69.66-13.07Q70.39-12.91 71.12-12.56L71.12-12.56L71.12-12.56Q71.84-12.22 72.50-11.70L72.50-11.70L72.50-11.70Q73.16-11.17 73.66-10.44L73.66-10.44L73.66-10.44Q74.17-9.70 74.47-8.75L74.47-8.75L74.47-8.75Q74.77-7.80 74.77-6.59ZM98.16-22.41L98.16-18.34L89.20-18.34L89.20 0L85.14 0L85.14-18.34L76.17-18.34L76.17-22.41L98.16-22.41ZM119.56-13.25L119.56-9.16L106.73-9.16L106.73-13.25L119.56-13.25ZM121.39-4.06L121.39 0L106.73 0L106.73 0Q105.89 0 104.89-0.30L104.89-0.30L104.89-0.30Q103.89-0.59 103.04-1.27L103.04-1.27L103.04-1.27Q102.19-1.95 101.62-3.04L101.62-3.04L101.62-3.04Q101.05-4.13 101.05-5.70L101.05-5.70L101.05-20.36L101.05-20.36Q101.05-20.78 101.20-21.16L101.20-21.16L101.20-21.16Q101.36-21.53 101.63-21.81L101.63-21.81L101.63-21.81Q101.91-22.09 102.28-22.25L102.28-22.25L102.28-22.25Q102.66-22.41 103.09-22.41L103.09-22.41L121.39-22.41L121.39-18.34L105.11-18.34L105.11-5.70L105.11-5.70Q105.11-4.91 105.53-4.48L105.53-4.48L105.53-4.48Q105.95-4.06 106.77-4.06L106.77-4.06L121.39-4.06ZM147.70-17.47L147.70-14.88L147.70-14.88Q147.70-13.48 147.36-12.39L147.36-12.39L147.36-12.39Q147.02-11.30 146.43-10.46L146.43-10.46L146.43-10.46Q145.84-9.63 145.08-9.03L145.08-9.03L145.08-9.03Q144.31-8.44 143.48-8.05L143.48-8.05L143.48-8.05Q142.64-7.67 141.79-7.50L141.79-7.50L141.79-7.50Q140.94-7.33 140.19-7.33L140.19-7.33L148.67 0L142.39 0L133.92-7.33L131-7.33L131-11.39L140.19-11.39L140.19-11.39Q140.95-11.45 141.59-11.71L141.59-11.71L141.59-11.71Q142.22-11.97 142.68-12.41L142.68-12.41L142.68-12.41Q143.14-12.84 143.39-13.46L143.39-13.46L143.39-13.46Q143.64-14.08 143.64-14.88L143.64-14.88L143.64-17.44L143.64-17.44Q143.64-17.78 143.55-17.96L143.55-17.96L143.55-17.96Q143.47-18.14 143.34-18.23L143.34-18.23L143.34-18.23Q143.20-18.31 143.05-18.33L143.05-18.33L143.05-18.33Q142.91-18.34 142.78-18.34L142.78-18.34L129.38-18.34L129.38 0L125.31 0L125.31-20.36L125.31-20.36Q125.31-20.78 125.47-21.16L125.47-21.16L125.47-21.16Q125.63-21.53 125.90-21.81L125.90-21.81L125.90-21.81Q126.17-22.09 126.55-22.25L126.55-22.25L126.55-22.25Q126.92-22.41 127.36-22.41L127.36-22.41L142.78-22.41L142.78-22.41Q144.14-22.41 145.08-21.91L145.08-21.91L145.08-21.91Q146.02-21.42 146.60-20.68L146.60-20.68L146.60-20.68Q147.19-19.94 147.45-19.08L147.45-19.08L147.45-19.08Q147.70-18.22 147.70-17.47L147.70-17.47Z" fill="#fe8605"></path></g></g><style>text {
  font-size: 64px;
  font-family: Arial Black;
  dominant-baseline: central;
  text-anchor: middle;
}</style></svg>