<svg version="1.0" xmlns="http://www.w3.org/2000/svg"
 height="80%" width="80%" viewBox="0 0 100.000000 100.000000"
 preserveAspectRatio="xMidYMid meet">
<g transform="translate(0.000000,100.000000) scale(0.100000,-0.100000)">
<path d="M263 852 c-196 -93 -223 -108 -223 -129 l0 -23 460 0 460 0 0 24 c0
20 -26 35 -227 130 -126 58 -232 106 -238 105 -5 0 -110 -49 -232 -107z"/>
<path d="M112 648 c3 -7 14 -17 26 -23 21 -9 22 -15 22 -167 l0 -158 50 0 50
0 0 160 0 160 50 0 50 0 0 -160 0 -160 50 0 50 0 0 160 0 160 40 0 40 0 0
-160 0 -160 50 0 50 0 0 160 0 160 50 0 50 0 0 -160 0 -160 50 0 50 0 0 158
c0 152 1 158 22 167 12 6 23 16 26 23 3 9 -79 12 -388 12 -309 0 -391 -3 -388
-12z"/>
<path d="M116 238 c-9 -12 -16 -26 -16 -30 0 -5 180 -8 400 -8 220 0 400 3
400 8 0 4 -7 18 -16 30 l-15 22 -369 0 -369 0 -15 -22z"/>
<path d="M56 138 c-9 -12 -16 -35 -16 -50 l0 -28 460 0 460 0 0 28 c0 15 -7
38 -16 50 l-15 22 -429 0 -429 0 -15 -22z"/>
</g>
</svg>