<svg version="1.0" xmlns="http://www.w3.org/2000/svg"
 height="80%" width="80%" viewBox="0 0 100.000000 100.000000"
 preserveAspectRatio="xMidYMid meet">
<g transform="translate(0.000000,100.000000) scale(0.100000,-0.100000)">
<path d="M864 963 c-19 -64 -32 -74 -207 -154 -92 -42 -142 -92 -163 -166 -9
-32 -18 -59 -19 -61 -2 -2 -38 10 -80 27 -120 49 -157 41 -239 -50 -85 -95
-156 -276 -156 -399 0 -60 31 -125 69 -144 68 -36 148 -11 283 85 91 66 107
74 148 74 41 0 57 -8 148 -74 135 -96 215 -121 283 -85 38 19 69 84 69 144 0
123 -71 304 -156 399 -82 91 -119 99 -239 50 -42 -17 -78 -29 -80 -27 -2 2 1
24 7 48 18 69 74 118 196 169 57 24 116 57 132 72 40 41 52 109 19 109 -5 0
-12 -8 -15 -17z m-94 -518 c26 -32 -13 -81 -47 -59 -23 14 -28 41 -13 59 16
19 44 19 60 0z m-470 -35 c0 -27 3 -30 30 -30 27 0 30 -3 30 -30 0 -27 -3 -30
-30 -30 -27 0 -30 -3 -30 -30 0 -27 -3 -30 -30 -30 -27 0 -30 3 -30 30 0 27
-3 30 -30 30 -27 0 -30 3 -30 30 0 27 3 30 30 30 27 0 30 3 30 30 0 27 3 30
30 30 27 0 30 -3 30 -30z m390 -45 c15 -18 10 -45 -12 -59 -35 -22 -74 27 -48
59 16 19 44 19 60 0z m160 0 c26 -32 -13 -81 -47 -59 -23 14 -28 41 -13 59 16
19 44 19 60 0z m-80 -80 c15 -18 10 -45 -12 -59 -35 -22 -74 27 -48 59 16 19
44 19 60 0z"/>
</g>
</svg>
