<svg version="1.0" xmlns="http://www.w3.org/2000/svg"
 width="24px" height="24px" viewBox="0 0 24.000000 24.000000"
 preserveAspectRatio="xMidYMid meet">
<g transform="translate(0.000000,24.000000) scale(0.100000,-0.100000)"
fill="#ffffff" stroke="none">
<path d="M64 224 c-29 -14 -74 -74 -56 -74 6 0 26 16 45 35 47 47 87 47 133 1
46 -46 46 -86 0 -132 -46 -46 -86 -46 -133 1 -43 43 -60 45 -37 5 19 -32 68
-60 104 -60 60 0 120 60 120 120 0 39 -30 88 -65 104 -41 20 -71 20 -111 0z"/>
<path d="M110 145 c0 -12 -12 -15 -55 -15 -30 0 -55 -4 -55 -10 0 -5 25 -10
55 -10 43 0 55 -3 55 -15 0 -14 3 -13 25 1 14 9 25 20 25 24 0 4 -11 15 -25
24 -22 14 -25 15 -25 1z"/>
</g>
</svg>