<svg id="svg" xmlns="http://www.w3.org/2000/svg" xmlns:xlink="http://www.w3.org/1999/xlink" height="250px" viewBox="0, 0, 400,753.6423841059603" version="1.1"><g id="svgg"><path id="path0" d="M158.600 0.368 C 158.160 0.545,155.460 0.809,152.600 0.956 C 141.391 1.530,130.345 3.477,125.441 5.743 C 111.716 12.084,102.773 23.961,91.816 50.400 C 89.958 54.881,85.453 64.111,80.393 73.800 C 54.704 122.994,47.692 140.183,47.379 154.735 C 47.181 163.949,46.752 164.778,40.351 168.291 C 34.832 171.320,31.219 175.370,29.458 180.501 C 27.867 185.137,29.621 273.226,32.034 309.800 C 33.845 337.265,33.019 342.212,17.406 397.400 C 9.639 424.854,5.720 441.061,5.350 447.262 C 4.572 460.278,9.980 474.001,20.659 486.111 C 26.945 493.240,26.757 494.905,16.275 524.800 C 9.515 544.078,2.913 563.854,2.586 565.800 C 2.439 566.680,2.074 568.300,1.775 569.400 C 1.477 570.500,1.112 572.529,0.964 573.909 C 0.816 575.289,0.538 576.514,0.347 576.633 C -0.111 576.916,-0.104 594.000,0.355 594.000 C 0.550 594.000,0.830 594.807,0.978 595.793 C 1.790 601.210,8.914 609.496,20.897 618.962 C 30.495 626.544,29.944 623.941,29.064 657.553 C 27.860 703.570,27.934 705.103,31.541 708.695 C 38.328 715.455,81.935 731.477,118.313 740.578 C 139.172 745.796,160.071 750.274,168.000 751.223 C 169.870 751.447,171.751 751.737,172.180 751.868 C 179.188 753.997,213.100 753.838,227.800 751.605 C 282.412 743.313,342.256 725.012,367.400 708.913 C 375.788 703.543,375.695 703.994,373.616 678.853 C 368.849 621.204,368.607 625.141,377.479 615.854 C 388.624 604.189,397.856 588.796,399.050 579.891 C 399.190 578.841,399.462 577.885,399.653 577.767 C 400.107 577.487,400.107 555.313,399.653 555.033 C 399.462 554.915,399.183 553.869,399.033 552.709 C 398.614 549.457,396.151 541.243,393.746 535.071 C 388.730 522.201,375.650 478.281,374.580 470.714 C 374.207 468.075,374.976 465.310,376.851 462.548 C 382.092 454.829,383.225 452.950,384.566 449.747 C 391.013 434.358,390.186 421.507,379.588 372.386 C 372.622 340.100,369.624 324.706,367.945 312.600 C 367.179 307.078,367.087 303.798,366.790 271.400 C 366.399 228.694,365.469 195.107,364.399 185.000 C 363.486 176.378,361.255 173.105,354.002 169.749 C 348.479 167.193,347.754 165.851,348.231 159.068 C 349.382 142.703,348.906 141.439,322.887 91.800 C 289.402 27.914,269.009 5.435,241.766 2.379 C 239.805 2.159,237.888 1.883,237.506 1.765 C 233.553 0.542,161.342 -0.736,158.600 0.368 M191.600 11.607 C 228.144 13.317,248.732 16.977,260.711 23.893 C 277.980 33.863,287.551 45.789,301.085 74.200 C 306.613 85.804,313.146 97.612,321.105 110.385 C 328.106 121.621,330.599 126.971,334.756 139.686 C 337.927 149.385,337.851 151.460,334.263 153.146 C 328.515 155.845,309.019 153.723,278.175 147.040 C 241.829 139.165,208.399 134.772,184.200 134.691 C 166.276 134.631,156.441 136.449,106.400 149.074 C 73.495 157.375,70.724 157.866,66.734 156.101 C 61.653 153.853,61.077 149.354,64.599 139.425 C 65.592 136.625,66.935 132.234,67.583 129.667 C 70.115 119.639,72.839 113.087,79.835 100.200 C 83.871 92.766,92.709 74.541,101.270 56.000 C 117.384 21.100,120.641 17.166,136.000 14.039 C 148.533 11.488,169.477 10.572,191.600 11.607 M202.400 92.670 C 182.084 93.801,158.290 99.778,152.478 105.211 C 149.685 107.821,153.328 108.131,166.534 106.409 C 193.728 102.861,213.850 102.415,238.800 104.806 C 259.433 106.783,261.600 106.785,261.600 104.820 C 261.600 98.417,226.940 91.304,202.400 92.670 M203.042 163.160 C 206.137 165.048,208.261 172.576,210.810 190.696 C 211.020 192.183,211.455 206.090,211.777 221.600 C 212.546 258.550,213.769 284.114,215.414 297.600 C 217.997 318.783,227.111 361.429,235.801 393.000 C 242.450 417.155,241.375 420.841,226.238 425.796 C 209.934 431.132,175.565 434.178,162.200 431.471 C 151.441 429.291,141.186 424.974,139.909 422.087 C 137.994 417.758,140.738 404.622,148.408 381.400 C 155.202 360.830,157.255 353.274,163.954 324.188 C 173.518 282.666,178.388 257.802,183.801 222.844 C 187.088 201.621,188.435 194.454,190.610 186.600 C 191.402 183.740,192.770 178.700,193.650 175.400 C 196.671 164.071,199.178 160.804,203.042 163.160 M54.789 181.588 C 57.777 184.786,58.364 209.704,56.195 241.200 C 53.571 279.297,50.992 306.949,48.360 325.200 C 47.421 331.710,47.101 335.750,46.808 344.800 C 45.761 377.156,43.968 396.395,39.567 422.482 C 37.450 435.032,37.100 436.139,33.131 442.855 C 30.319 447.614,29.165 447.672,27.814 443.123 C 23.820 429.672,24.562 423.509,35.606 378.400 C 45.214 339.160,45.371 338.243,45.067 323.200 C 44.831 311.473,43.136 265.776,42.397 251.200 C 40.711 217.919,41.295 194.722,44.002 187.486 C 46.204 181.600,51.894 178.489,54.789 181.588 M344.708 184.779 C 351.602 189.774,353.782 212.988,353.574 279.200 L 353.480 309.400 354.517 315.238 C 355.088 318.449,357.109 328.169,359.008 336.838 C 370.153 387.705,371.797 400.909,368.043 409.395 C 366.688 412.460,365.586 412.328,363.107 408.805 C 358.555 402.336,352.297 366.273,342.040 287.400 C 331.426 205.779,332.207 175.724,344.708 184.779 M235.937 186.578 C 238.611 187.521,243.714 191.013,252.000 197.570 C 270.386 212.119,271.369 212.107,305.068 196.965 C 318.633 190.869,318.519 190.837,322.127 201.819 C 324.653 209.506,325.049 211.608,325.398 219.200 C 325.926 230.670,327.867 250.362,330.484 270.800 C 331.679 280.133,331.742 281.324,331.805 295.800 C 331.869 310.418,331.920 311.367,333.145 320.572 C 336.394 344.972,338.077 355.033,342.049 373.800 C 347.987 401.861,349.622 410.314,351.992 425.200 C 355.936 449.982,358.988 468.048,362.835 489.400 C 367.777 516.824,369.044 522.653,374.793 544.400 C 379.303 561.463,379.027 576.695,374.032 586.290 C 361.190 610.962,306.711 645.460,262.400 656.979 C 237.376 663.485,211.566 665.307,162.800 664.011 C 142.329 663.468,123.713 659.475,113.200 653.372 C 111.990 652.670,109.708 651.633,108.129 651.067 C 106.550 650.501,103.850 649.335,102.129 648.476 C 100.408 647.617,97.290 646.428,95.200 645.835 C 81.959 642.077,48.960 620.922,35.571 607.608 C 18.219 590.353,17.770 580.223,31.974 526.458 C 44.384 479.485,46.434 468.516,51.610 421.400 C 53.908 400.485,53.929 400.343,57.403 383.000 C 60.116 369.456,61.605 360.039,62.590 350.200 C 65.095 325.193,64.972 327.600,64.861 305.800 C 64.743 282.756,64.951 278.253,67.800 242.400 C 70.250 211.573,70.072 212.784,73.568 203.099 C 74.460 200.626,74.937 198.393,75.192 195.486 C 75.925 187.148,77.002 186.750,85.605 191.640 C 126.588 214.939,132.187 215.196,159.000 195.007 C 172.964 184.492,172.431 183.765,172.486 213.400 C 172.521 232.115,161.110 293.004,148.566 341.039 C 141.275 368.955,139.606 373.774,131.189 391.200 C 117.931 418.648,115.812 428.135,120.754 437.904 C 128.288 452.794,162.885 462.333,206.292 461.486 C 229.773 461.029,246.273 451.648,254.988 433.800 C 259.852 423.839,259.754 419.850,254.250 403.800 C 247.125 383.023,234.924 328.773,228.836 290.800 C 225.833 272.072,224.038 249.056,223.876 227.200 C 223.793 216.074,223.895 215.246,226.233 208.086 C 227.111 205.395,227.724 202.491,228.004 199.686 C 229.260 187.114,230.702 184.731,235.937 186.578 M185.000 513.047 C 175.087 513.572,161.014 515.621,148.059 518.425 C 116.542 525.247,108.234 526.392,90.200 526.401 C 79.392 526.406,77.189 526.976,77.209 529.762 C 77.232 533.047,81.456 535.180,93.056 537.764 C 109.798 541.494,119.018 541.888,142.600 539.883 C 167.324 537.781,184.250 537.514,201.200 538.957 C 232.482 541.621,267.694 541.638,283.271 538.998 C 292.374 537.456,297.200 533.865,297.200 528.635 C 297.200 524.961,294.098 524.084,287.000 525.752 C 269.594 529.842,254.019 528.149,225.000 519.012 C 208.117 513.696,198.845 512.313,185.000 513.047 M235.200 567.873 C 234.650 567.964,231.410 568.564,228.000 569.207 C 204.763 573.589,176.522 575.912,160.000 574.800 C 143.124 573.664,141.504 573.798,140.031 576.455 C 135.067 585.409,175.786 597.927,202.386 595.625 C 217.940 594.279,232.784 587.977,241.918 578.843 C 248.942 571.819,245.489 566.181,235.200 567.873 M65.655 652.573 C 79.504 659.687,92.272 665.149,105.413 669.582 C 112.967 672.130,114.722 672.990,121.094 677.264 C 156.010 700.683,193.624 709.283,229.238 701.992 C 256.508 696.408,296.952 678.090,335.143 654.023 C 346.320 646.980,346.708 647.335,349.571 667.200 C 352.336 686.379,351.901 692.195,347.311 697.457 C 340.513 705.252,333.947 708.556,308.117 717.177 C 247.192 737.513,194.124 739.845,122.000 725.356 C 96.869 720.308,82.726 715.998,75.477 711.180 C 72.451 709.169,68.494 706.949,66.200 705.977 C 57.794 702.413,56.155 700.440,54.213 691.544 C 50.215 673.230,50.199 654.155,54.178 649.861 C 55.927 647.974,57.365 648.314,65.655 652.573 " stroke="none"></path></g></svg>