<svg xmlns="http://www.w3.org/2000/svg" xmlns:xlink="http://www.w3.org/1999/xlink" viewBox="0, 0, 400,416.1785216178522" version="1.1">
<g><path d="M225.154 13.614 C 220.413 14.168,218.667 15.718,216.226 21.537 C 213.022 29.178,211.328 29.303,209.954 22.000 C 208.752 15.615,205.750 15.370,190.600 20.420 C 180.777 23.694,179.758 24.841,180.584 31.692 C 181.000 35.142,180.462 35.469,177.483 33.572 C 170.333 29.021,168.680 29.281,158.198 36.610 C 149.788 42.489,148.651 43.692,147.962 47.431 C 147.400 50.484,147.188 50.701,144.472 50.998 C 140.217 51.464,139.125 52.113,134.816 56.734 C 127.428 64.659,125.984 66.792,125.428 70.607 C 125.042 73.257,124.459 74.065,121.884 75.518 C 113.451 80.277,103.170 111.775,100.790 140.141 C 99.156 159.607,97.632 163.941,87.657 177.475 C 81.459 185.885,90.889 183.274,100.014 174.054 C 106.289 167.713,109.446 162.268,115.163 147.926 C 131.923 105.883,152.168 83.802,180.558 76.601 C 189.287 74.386,189.761 75.579,182.220 80.786 C 173.527 86.790,174.348 87.297,186.539 83.454 C 221.244 72.514,266.246 79.931,292.861 100.976 C 299.886 106.532,298.992 107.209,315.626 83.730 C 322.300 74.308,329.738 63.810,332.155 60.400 C 340.810 48.188,340.600 48.536,340.600 46.383 C 340.600 41.818,331.270 36.575,327.589 39.071 C 327.045 39.440,324.501 41.767,321.936 44.242 C 313.218 52.654,311.499 51.822,315.940 41.338 C 320.175 31.342,318.474 29.761,295.749 22.584 C 280.674 17.823,279.373 18.137,278.158 26.829 C 276.904 35.802,274.871 35.256,271.183 24.954 C 268.275 16.828,266.946 15.559,260.294 14.560 C 250.493 13.089,247.426 14.086,246.604 19.014 C 245.804 23.809,244.314 23.872,241.518 19.230 C 237.976 13.351,235.292 12.430,225.154 13.614 M205.600 85.254 C 176.265 86.537,147.382 106.410,132.427 135.600 C 126.590 146.993,128.280 149.678,136.200 141.594 C 146.247 131.338,148.017 131.623,145.236 143.047 C 141.938 156.590,141.232 167.066,142.839 178.600 C 145.464 197.441,143.696 212.344,135.812 237.825 C 131.747 250.966,132.180 251.813,142.367 250.643 C 147.013 250.109,151.383 249.708,164.370 248.625 C 170.390 248.122,193.542 249.678,203.057 251.225 C 212.965 252.835,214.075 251.153,209.065 242.117 C 199.885 225.561,202.740 225.293,217.289 241.344 C 229.935 255.295,234.676 259.668,244.798 266.719 C 252.891 272.356,257.399 276.125,264.385 283.096 C 271.296 289.993,272.652 291.024,274.269 290.618 C 276.418 290.079,276.445 289.723,276.381 263.065 C 276.322 238.756,276.370 237.643,277.523 236.300 C 278.567 235.085,279.564 235.518,282.780 238.581 C 290.305 245.749,290.535 245.263,295.195 212.350 C 297.584 195.476,297.481 167.336,294.976 152.800 C 293.244 142.754,292.750 142.056,285.751 139.771 C 279.844 137.843,279.406 136.776,283.617 134.563 C 288.772 131.854,289.167 130.110,286.057 123.765 C 277.123 105.533,260.393 92.267,239.736 87.034 C 232.866 85.293,220.012 84.623,205.600 85.254 M252.659 164.500 C 253.518 165.435,256.805 170.700,259.964 176.200 C 276.604 205.170,275.980 204.224,279.572 205.940 C 284.162 208.132,285.566 216.595,282.377 222.846 C 279.752 227.991,277.388 227.614,275.659 221.776 C 274.595 218.183,273.458 216.640,268.490 212.044 C 255.131 199.686,248.000 185.177,248.000 170.352 C 248.000 162.665,249.381 160.930,252.659 164.500 M149.000 261.249 C 118.536 263.580,92.755 271.830,69.400 286.722 C 58.626 293.592,44.461 308.132,42.155 314.690 C 40.693 318.844,42.656 318.490,49.800 313.312 C 72.508 296.851,103.960 285.539,140.210 280.795 C 145.484 280.104,150.970 279.371,152.400 279.166 C 160.698 277.974,204.795 278.413,213.600 279.775 C 215.690 280.098,219.830 280.657,222.800 281.017 C 225.770 281.377,232.042 282.376,236.737 283.236 C 251.999 286.032,254.909 284.818,245.928 279.400 C 224.225 266.308,183.228 258.631,149.000 261.249 M144.600 289.849 C 81.180 293.650,25.888 330.318,23.743 370.000 C 23.171 380.591,24.873 381.987,28.119 373.588 C 31.542 364.731,34.966 358.866,40.748 351.952 C 58.575 330.638,98.755 312.175,141.200 305.794 C 145.050 305.216,149.730 304.485,151.600 304.172 C 153.470 303.858,157.430 303.421,160.400 303.200 C 163.370 302.979,169.670 302.512,174.400 302.161 C 188.134 301.144,194.915 301.053,204.239 301.760 C 219.104 302.887,227.047 302.583,226.724 300.899 C 226.166 297.989,210.392 293.800,187.800 290.563 C 183.601 289.961,151.561 289.432,144.600 289.849 " stroke="none"></path></g></svg>