<svg version="1.0" xmlns="http://www.w3.org/2000/svg"
 height="250px" viewBox="0 0 900.000000 936.000000"
 preserveAspectRatio="xMidYMid meet">
<g transform="translate(0.000000,936.000000) scale(0.100000,-0.100000)">
<path d="M5120 9049 c-102 -5 -190 -11 -196 -13 -6 -2 -14 -17 -17 -33 -5 -29
-20 -75 -44 -130 -7 -17 -13 -38 -13 -46 0 -8 -7 -28 -15 -43 -8 -16 -15 -36
-15 -44 0 -9 -4 -20 -9 -25 -12 -13 -32 -87 -38 -145 -3 -25 -12 -53 -21 -63
-24 -27 -7 -31 21 -5 29 27 70 108 121 238 85 217 88 220 252 227 118 6 120 5
150 -20 18 -16 56 -74 89 -139 75 -148 156 -270 170 -256 4 3 -1 20 -9 37 -9
16 -16 39 -16 51 0 11 -4 28 -9 38 -5 9 -24 49 -41 87 -17 39 -37 84 -45 100
-29 63 -68 151 -76 173 -6 15 -16 22 -31 20 -13 0 -106 -5 -208 -9z"/>
<path d="M5525 9028 c8 -27 31 -151 50 -267 7 -46 18 -88 24 -94 6 -6 11 -28
11 -48 0 -21 4 -41 10 -44 18 -11 23 47 16 194 -8 162 -5 170 57 185 46 11
204 -14 240 -38 33 -23 69 -103 117 -266 13 -41 35 -102 50 -135 16 -33 38
-81 50 -108 56 -122 45 43 -16 220 -13 39 -24 77 -24 83 0 7 -6 26 -14 43 -8
18 -16 46 -19 62 -5 30 -17 69 -44 136 -20 48 -43 57 -176 70 -62 5 -137 14
-167 19 -30 5 -81 9 -114 9 -56 1 -58 0 -51 -21z"/>
<path d="M4610 8985 c-30 -7 -89 -22 -130 -34 -41 -12 -100 -29 -130 -38 -67
-18 -125 -40 -163 -59 -16 -8 -35 -14 -42 -14 -13 0 -47 -13 -112 -43 -24 -11
-31 -45 -14 -62 19 -19 121 -215 121 -231 0 -7 7 -14 15 -18 8 -3 15 -12 15
-21 0 -8 5 -15 10 -15 6 0 15 -11 20 -25 5 -14 14 -25 20 -25 14 0 12 48 -4
90 -8 19 -28 71 -45 115 -53 135 -42 154 130 211 184 61 294 79 317 52 5 -7
13 -53 17 -103 13 -181 33 -283 49 -256 9 14 27 457 19 477 -6 17 -20 17 -93
-1z"/>
<path d="M6260 8676 c0 -163 4 -277 9 -281 18 -11 33 38 43 139 5 55 15 142
21 191 l12 90 60 0 c33 -1 87 -9 120 -19 156 -47 194 -60 245 -81 30 -12 80
-30 110 -40 96 -31 169 -73 176 -99 8 -33 2 -49 -81 -221 -69 -143 -128 -325
-111 -342 4 -4 9 2 12 14 3 12 12 24 20 27 8 3 14 13 14 22 0 10 6 25 14 33
18 20 162 292 180 341 4 8 17 35 31 59 44 78 42 151 -5 151 -10 0 -31 6 -47
14 -31 16 -92 43 -138 62 -16 6 -47 19 -68 28 -21 9 -47 16 -57 16 -11 0 -28
4 -38 10 -31 18 -122 50 -142 50 -11 0 -34 6 -52 14 -31 13 -54 20 -205 62
-32 9 -68 21 -81 25 -13 5 -27 9 -32 9 -6 0 -10 -107 -10 -274z"/>
<path d="M3793 8679 c-14 -14 -50 -35 -85 -50 -16 -6 -28 -14 -28 -19 0 -4 -8
-11 -17 -14 -10 -3 -27 -12 -38 -19 -45 -28 -80 -52 -85 -58 -3 -3 -36 -28
-75 -54 -38 -26 -83 -60 -100 -75 -16 -15 -40 -33 -52 -39 -35 -18 -28 -50 21
-106 25 -27 61 -68 80 -90 20 -22 36 -43 36 -47 0 -5 6 -8 14 -8 7 0 17 -10
21 -22 3 -13 9 -18 11 -11 7 16 -19 87 -55 153 -17 30 -31 65 -31 77 0 23 63
84 139 132 25 17 55 37 66 45 94 72 143 97 195 101 54 4 75 -6 118 -57 42 -48
191 -168 209 -168 7 0 13 6 13 13 0 16 -102 137 -209 250 -62 64 -79 77 -105
77 -18 0 -37 -5 -43 -11z"/>
<path d="M7359 8488 c-13 -18 -54 -64 -90 -103 -124 -131 -142 -150 -225 -246
-46 -53 -84 -101 -84 -107 0 -5 -7 -12 -15 -16 -16 -6 -21 -36 -6 -36 24 0
143 103 292 255 l167 168 38 -7 c22 -4 59 -20 84 -35 40 -24 45 -31 43 -60 -1
-20 -14 -51 -32 -75 -17 -22 -63 -88 -102 -146 -39 -58 -86 -123 -103 -145
-18 -22 -54 -73 -82 -113 -27 -41 -59 -88 -72 -105 -12 -18 -33 -48 -47 -68
-13 -21 -28 -39 -32 -40 -5 -2 -22 -26 -37 -54 -16 -27 -43 -68 -60 -90 -17
-23 -53 -74 -81 -114 -27 -40 -69 -95 -92 -122 -24 -27 -43 -54 -43 -59 0 -20
-53 -70 -75 -70 -13 0 -45 17 -72 38 -95 73 -109 82 -178 124 -92 55 -312 165
-367 183 -23 7 -92 32 -153 55 -60 23 -139 48 -175 56 -36 9 -78 22 -95 30
-16 7 -50 16 -75 20 -25 3 -79 12 -120 21 -138 27 -204 33 -375 33 -197 1
-240 7 -240 35 0 19 -7 20 -110 20 -72 0 -134 -7 -180 -18 -38 -10 -95 -23
-125 -29 -30 -6 -59 -14 -64 -19 -6 -5 -19 -9 -29 -9 -10 0 -35 -7 -55 -16
-21 -8 -53 -22 -72 -31 -19 -8 -51 -22 -70 -30 -115 -49 -166 -74 -240 -115
-30 -16 -69 -41 -87 -54 -17 -13 -35 -24 -38 -24 -9 0 -119 -84 -200 -153 -83
-71 -192 -185 -236 -244 -54 -76 -4 -51 90 43 47 48 120 112 161 144 88 67
273 180 294 180 8 0 18 5 21 10 6 10 39 26 130 64 17 7 46 20 65 28 19 9 60
24 90 33 30 10 66 22 80 28 33 14 121 35 195 47 33 6 74 16 90 22 44 19 755
17 809 -1 21 -8 64 -17 95 -22 88 -13 183 -34 214 -47 16 -7 33 -12 39 -12 13
0 102 -29 145 -47 17 -7 40 -13 50 -13 10 0 23 -4 29 -9 5 -5 38 -18 74 -30
57 -19 168 -68 210 -92 8 -5 22 -12 30 -15 8 -3 22 -10 30 -15 8 -5 22 -12 30
-16 84 -38 247 -153 321 -225 62 -62 81 -71 107 -52 12 8 22 21 22 29 0 12 77
132 104 161 6 7 31 42 56 78 25 37 73 104 108 151 34 46 62 87 62 90 0 3 5 11
10 18 27 31 110 147 110 152 0 3 5 11 10 18 13 14 128 173 150 207 8 12 20 28
25 34 6 6 28 38 50 71 22 33 79 113 128 177 48 64 87 121 87 127 0 5 7 11 15
15 8 3 15 16 15 29 0 19 -15 31 -85 67 -47 24 -93 52 -102 62 -9 10 -21 18
-26 18 -6 0 -18 7 -27 15 -9 8 -30 18 -47 21 -26 5 -33 1 -54 -28z"/>
<path d="M3111 8168 c-94 -100 -116 -125 -161 -178 -45 -54 -90 -106 -142
-164 -35 -38 -35 -46 1 -77 15 -14 31 -34 35 -44 4 -11 27 -36 51 -55 24 -19
44 -41 44 -47 1 -14 31 -19 31 -5 0 7 -44 119 -63 159 -7 16 -7 30 1 47 19 43
105 149 189 234 94 95 91 95 208 33 167 -89 166 -58 -5 85 -97 81 -122 82
-189 12z"/>
<path d="M4560 7820 c-136 -8 -299 -31 -370 -54 -25 -7 -65 -19 -90 -26 -25
-6 -60 -18 -78 -26 -18 -8 -40 -14 -50 -14 -10 0 -34 -9 -55 -20 -20 -11 -42
-20 -48 -20 -19 0 -238 -113 -317 -163 -40 -26 -75 -47 -78 -47 -12 0 -168
-138 -275 -242 -140 -137 -317 -372 -409 -543 -57 -105 -155 -299 -167 -330
-7 -16 -16 -37 -21 -45 -5 -8 -16 -35 -25 -60 -24 -69 -56 -149 -88 -216 -16
-34 -29 -67 -29 -75 0 -8 -18 -48 -40 -89 -21 -41 -50 -97 -65 -125 -29 -58
-104 -156 -122 -163 -8 -2 -13 5 -13 15 0 23 38 134 52 150 5 7 8 16 5 20 -3
4 3 41 13 82 18 70 24 125 51 431 6 69 20 172 30 230 11 58 21 116 23 130 23
143 51 258 101 405 37 111 80 226 94 252 5 10 34 70 64 133 69 144 88 159 178
140 33 -7 62 -10 66 -6 4 3 -15 25 -42 49 -27 23 -57 50 -66 59 -39 38 -57 41
-85 13 -14 -14 -32 -40 -40 -58 -8 -17 -18 -39 -23 -47 -35 -58 -161 -326
-161 -342 0 -11 -6 -32 -14 -46 -27 -54 -46 -103 -46 -123 0 -11 -5 -30 -12
-42 -6 -12 -15 -40 -19 -62 -10 -50 -27 -117 -45 -175 -8 -25 -14 -58 -14 -75
0 -27 -8 -69 -42 -215 -6 -25 -14 -99 -18 -165 -15 -241 -32 -401 -46 -443 -8
-23 -14 -53 -14 -66 0 -13 -7 -37 -15 -52 -8 -16 -15 -38 -15 -49 -1 -11 -12
-38 -25 -60 -14 -22 -29 -49 -35 -60 -6 -11 -19 -33 -30 -50 -11 -16 -23 -37
-26 -45 -19 -42 -150 -181 -234 -249 -51 -41 -80 -70 -80 -82 0 -18 22 -18 57
1 21 11 46 20 56 20 11 0 31 6 45 14 15 8 34 17 42 20 8 4 29 15 45 26 17 11
37 23 45 27 63 28 320 274 320 306 0 4 14 26 30 49 17 22 30 47 30 54 0 7 4
14 8 16 5 2 25 37 44 78 56 116 68 146 68 169 0 12 4 21 10 21 5 0 14 18 20
40 6 21 15 42 20 45 6 3 10 17 10 30 0 13 4 26 9 29 5 3 12 18 15 33 4 16 13
42 20 58 8 17 21 46 29 65 78 178 188 380 297 545 116 177 136 201 296 363 94
94 177 172 184 172 6 0 38 20 70 45 32 25 61 45 64 45 3 0 22 12 43 26 21 14
47 30 58 35 11 5 27 13 35 18 8 5 22 12 30 15 8 3 22 10 30 14 8 5 31 16 50
24 19 8 51 22 70 30 70 31 96 41 125 49 17 4 70 22 118 38 48 17 96 31 107 31
10 0 21 4 24 9 3 5 36 12 73 16 37 4 78 11 91 16 13 5 68 14 121 19 84 9 247
34 261 40 8 4 -83 19 -110 18 -14 -1 -81 -4 -150 -8z"/>
<path d="M4465 7413 c-33 -8 -81 -22 -107 -29 -26 -8 -59 -14 -75 -14 -15 0
-40 -6 -55 -14 -15 -8 -40 -17 -57 -21 -17 -4 -33 -11 -36 -16 -4 -5 -14 -9
-23 -9 -9 0 -30 -7 -46 -15 -15 -8 -34 -15 -42 -15 -18 0 -201 -95 -241 -126
-17 -13 -36 -24 -41 -24 -9 0 -92 -53 -123 -78 -8 -6 -41 -33 -74 -58 -199
-156 -452 -458 -570 -679 -14 -27 -30 -54 -36 -59 -5 -6 -9 -17 -9 -25 0 -14
-22 -64 -76 -174 -8 -16 -14 -37 -14 -47 0 -10 -4 -21 -9 -25 -5 -3 -15 -22
-21 -43 -7 -20 -18 -52 -27 -70 -17 -39 -14 -66 8 -70 10 -2 22 12 35 40 10
24 32 63 48 88 28 42 163 215 196 250 8 9 53 59 100 110 47 52 109 121 139
152 44 47 51 59 37 64 -9 4 -25 -1 -35 -10 -10 -9 -22 -16 -28 -16 -6 0 -31
-11 -56 -25 -71 -40 -70 -17 5 105 47 77 215 252 353 369 82 70 254 181 279
181 8 0 19 7 27 16 15 18 113 70 179 95 25 9 63 23 85 32 22 8 60 20 85 27 25
6 68 18 95 25 157 44 191 48 418 52 295 5 479 -8 622 -46 133 -34 239 -73 264
-95 10 -9 23 -16 29 -16 16 0 164 -78 177 -93 6 -7 27 -21 47 -32 95 -51 330
-301 384 -406 13 -26 29 -51 35 -54 12 -8 69 -130 69 -148 -1 -20 -36 -56 -65
-67 -14 -5 -54 -12 -88 -14 -34 -3 -100 -12 -147 -20 -47 -9 -89 -16 -95 -16
-5 0 -3 -4 5 -9 24 -14 269 -21 345 -11 131 19 158 25 168 41 18 28 -113 282
-225 435 -93 127 -305 326 -392 369 -23 11 -43 23 -46 27 -9 12 -204 108 -220
108 -8 0 -24 7 -34 15 -11 8 -29 15 -41 15 -12 0 -25 4 -30 9 -10 10 -64 25
-150 43 -27 6 -59 15 -70 22 -14 7 -135 12 -395 13 -312 1 -385 -1 -435 -14z"/>
<path d="M3390 6440 c0 -16 -4 -30 -9 -30 -14 0 -74 -132 -105 -235 -11 -33
-25 -77 -32 -98 -8 -20 -14 -51 -14 -67 0 -16 -5 -41 -11 -57 -13 -34 -33
-283 -33 -413 1 -96 16 -236 34 -300 13 -47 13 -511 0 -545 -6 -15 -15 -59
-20 -99 -15 -113 -31 -200 -41 -218 -10 -19 -26 -78 -41 -153 -6 -27 -16 -62
-24 -77 -8 -14 -14 -34 -14 -45 -1 -17 -22 -81 -48 -146 -7 -16 -12 -39 -12
-53 0 -13 -4 -32 -10 -42 -19 -33 -70 -160 -70 -174 0 -12 70 -10 110 3 45 14
227 36 400 48 74 5 159 15 189 22 42 9 94 9 225 0 94 -7 248 -16 341 -21 168
-10 312 -28 390 -49 22 -6 57 -11 78 -11 21 0 59 -9 84 -21 56 -25 78 -19 68
19 -3 15 -17 38 -29 52 -12 14 -51 74 -87 135 -35 60 -69 118 -76 130 -7 11
-17 32 -24 48 -6 15 -15 27 -20 27 -5 0 -9 5 -9 11 0 13 -68 128 -87 147 -7 7
-13 18 -13 23 0 5 -5 15 -10 22 -19 22 -80 119 -80 127 0 4 -7 10 -15 14 -8 3
-15 12 -15 21 0 8 -7 15 -16 15 -12 0 -15 -6 -9 -22 4 -13 9 -36 12 -53 3 -16
14 -41 24 -54 11 -13 19 -28 19 -33 0 -4 32 -68 72 -141 39 -72 80 -147 89
-166 10 -18 24 -41 32 -50 20 -23 57 -104 57 -124 0 -19 -55 -32 -102 -23 -65
12 -225 28 -303 31 -44 2 -170 8 -280 13 -207 10 -278 9 -455 -7 -58 -5 -114
-9 -125 -10 -11 0 -40 -3 -65 -7 -25 -3 -83 -6 -130 -7 l-85 -2 -3 38 c-2 23
9 80 28 140 17 56 36 120 42 142 6 22 19 67 29 100 109 364 140 717 93 1070
-35 265 -19 598 37 768 10 31 19 66 19 76 0 10 14 56 31 102 34 91 56 197 46
223 -10 27 -27 18 -27 -14z"/>
<path d="M6024 6236 c17 -14 177 -68 236 -80 129 -27 208 -51 226 -68 42 -38
77 -191 94 -406 22 -278 10 -839 -21 -1027 -6 -33 -14 -91 -19 -130 -5 -38
-13 -101 -19 -140 -5 -38 -12 -99 -15 -134 -8 -74 -22 -144 -37 -183 -10 -24
-13 -26 -36 -15 -14 6 -38 23 -54 38 -39 36 -38 78 1 136 17 24 30 50 30 58 0
8 4 16 9 20 5 3 17 31 27 63 14 48 15 83 10 217 -7 182 -39 355 -61 333 -3 -2
-8 -130 -12 -283 l-6 -279 -52 -75 c-28 -42 -60 -90 -70 -107 l-18 -32 49 -63
c26 -35 51 -66 54 -69 15 -13 100 -129 100 -137 0 -17 45 -52 57 -45 18 11 33
59 33 103 0 22 5 49 10 60 6 10 13 49 17 87 3 37 12 92 19 122 8 30 14 72 14
95 0 22 7 72 15 110 8 39 15 93 15 122 0 28 5 64 11 80 14 35 27 231 35 518 8
252 -11 657 -32 720 -8 22 -14 60 -14 85 0 25 -11 88 -23 140 l-23 95 -49 12
c-28 7 -79 17 -115 23 -36 6 -101 17 -145 26 -44 9 -120 18 -170 20 -81 4 -88
3 -71 -10z"/>
<path d="M5608 5829 c2 -17 16 -52 30 -77 30 -57 41 -77 142 -257 18 -33 52
-91 75 -130 22 -38 44 -77 48 -85 4 -8 16 -28 27 -45 11 -16 25 -41 30 -55 6
-13 14 -27 18 -30 4 -3 17 -25 30 -50 13 -25 32 -58 43 -75 10 -16 24 -42 30
-57 6 -16 15 -28 20 -28 5 0 9 -5 9 -11 0 -6 19 -44 43 -83 23 -39 58 -102 77
-139 58 -112 80 -86 80 97 0 77 -4 126 -10 126 -5 0 -10 -6 -10 -13 0 -7 -6
-22 -14 -33 -14 -18 -16 -18 -51 16 -32 31 -106 148 -151 240 -4 8 -27 47 -51
86 -24 39 -43 74 -43 78 0 3 -24 46 -53 94 -82 133 -150 248 -172 290 -26 47
-40 67 -89 125 -46 55 -64 60 -58 16z"/>
<path d="M5500 5772 c-8 -39 -11 -122 -8 -253 l4 -194 43 -130 c69 -209 198
-446 296 -547 25 -26 45 -52 45 -58 0 -14 -38 -4 -60 16 -47 41 -62 52 -111
78 -30 16 -61 35 -70 42 -18 16 -29 18 -29 4 0 -17 200 -207 356 -339 l61 -51
6 -268 c6 -236 18 -386 33 -401 8 -9 24 22 24 47 0 38 20 24 21 -15 1 -21 1
-44 0 -51 -1 -8 2 -19 7 -25 11 -13 11 -651 1 -662 -13 -13 -65 19 -114 68
-131 133 -203 193 -420 348 -93 67 -195 143 -225 168 -106 89 -348 332 -360
361 -7 16 -20 32 -29 35 -9 4 -43 38 -76 78 -33 39 -73 84 -88 99 -16 15 -50
54 -75 86 -95 117 -331 326 -349 308 -3 -3 2 -8 11 -12 9 -3 16 -11 16 -16 0
-13 100 -144 155 -202 6 -6 56 -63 110 -126 55 -63 113 -131 131 -150 17 -19
71 -80 119 -135 171 -195 422 -435 454 -435 6 0 11 -4 11 -9 0 -7 72 -59 148
-106 124 -77 394 -312 472 -410 73 -92 175 -195 193 -195 17 0 19 5 13 43 -7
48 -15 497 -19 1185 -4 461 -4 473 -24 495 -12 12 -85 82 -162 156 -126 119
-214 217 -234 261 -4 8 -16 29 -26 45 -45 69 -114 222 -146 323 -34 106 -36
116 -44 328 -7 205 -18 274 -41 274 -4 0 -13 -26 -20 -58z"/>
<path d="M5560 4650 c0 -14 111 -177 129 -190 4 -3 35 -38 69 -78 102 -119
118 -163 157 -432 7 -52 18 -122 24 -155 5 -33 13 -82 16 -109 10 -78 25 -35
25 74 0 52 -5 111 -10 130 -6 19 -12 87 -15 150 -3 63 -11 146 -17 183 -11 67
-14 71 -96 160 -231 250 -282 298 -282 267z"/>
<path d="M3360 3470 c-85 -4 -173 -13 -195 -19 -22 -6 -64 -11 -94 -11 -29 0
-83 -6 -120 -14 -101 -22 -181 -37 -240 -46 -29 -5 -58 -13 -64 -19 -6 -6 -23
-11 -38 -11 -15 0 -40 -5 -56 -11 -15 -7 -46 -15 -68 -19 -22 -5 -85 -25 -140
-45 -55 -20 -116 -40 -135 -44 -19 -4 -57 -20 -84 -35 -27 -14 -53 -26 -58
-26 -20 0 -179 -77 -283 -136 -33 -19 -69 -39 -80 -44 -11 -6 -33 -19 -50 -30
-16 -11 -40 -24 -52 -30 -13 -5 -23 -14 -23 -20 0 -5 -7 -10 -15 -10 -50 0
-361 -271 -517 -451 -53 -61 -128 -164 -128 -176 0 -3 -13 -22 -28 -42 -16
-20 -32 -43 -35 -51 -4 -8 -20 -37 -36 -65 -29 -49 -40 -105 -21 -105 5 0 22
15 37 32 80 95 275 273 342 313 9 6 32 21 51 35 36 26 60 41 95 60 11 6 47 26
80 44 33 19 94 50 135 71 41 20 82 41 90 46 8 5 25 14 38 19 13 5 49 21 80 35
31 15 71 32 87 39 17 7 47 21 68 30 21 9 48 16 61 16 13 0 29 7 36 15 7 8 22
15 34 15 11 0 34 7 50 15 15 8 38 15 50 15 11 1 32 7 46 15 14 8 33 14 43 15
11 0 33 6 50 13 55 24 176 56 290 77 48 9 73 16 163 44 29 9 68 16 89 16 20 0
67 6 104 14 65 15 184 30 353 46 48 5 97 14 110 21 34 18 1313 19 1346 0 13
-7 62 -16 110 -21 169 -16 288 -31 332 -42 25 -6 68 -14 95 -18 69 -11 164
-30 202 -41 18 -6 54 -14 80 -19 27 -4 62 -13 78 -18 17 -6 57 -18 90 -28 33
-10 76 -26 96 -36 36 -19 69 -16 69 6 0 13 -46 46 -120 83 -31 15 -69 38 -86
50 -17 12 -42 27 -55 33 -13 5 -32 14 -41 20 -10 5 -26 15 -35 20 -10 6 -25
13 -33 16 -8 4 -51 24 -95 44 -44 21 -105 48 -135 60 -30 12 -67 28 -82 36
-14 8 -33 14 -41 14 -8 0 -28 7 -43 15 -16 8 -38 15 -49 15 -12 0 -26 5 -32
11 -6 6 -29 15 -50 20 -59 12 -126 31 -148 40 -11 5 -40 13 -65 19 -89 18
-146 32 -194 46 -26 8 -65 14 -86 14 -22 0 -51 5 -66 11 -16 5 -66 14 -113 19
-48 5 -109 14 -136 19 -71 13 -629 21 -815 11z m700 -80 c260 -22 560 -77 790
-145 30 -9 72 -20 93 -24 21 -5 46 -16 57 -26 10 -9 23 -14 28 -11 20 12 142
-53 142 -75 0 -9 -153 -3 -230 8 -25 4 -56 8 -70 9 -14 1 -63 7 -110 13 -148
18 -234 20 -695 21 -473 0 -605 -4 -720 -20 -38 -6 -101 -15 -140 -20 -354
-48 -524 -76 -578 -96 -20 -8 -47 -14 -58 -14 -11 0 -55 -9 -97 -21 -129 -35
-286 -81 -307 -89 -11 -5 -51 -18 -90 -30 -38 -12 -84 -28 -102 -36 -17 -8
-36 -14 -42 -14 -22 0 -152 -55 -319 -136 -95 -46 -179 -84 -187 -84 -7 0 -16
-4 -20 -9 -10 -17 -118 -62 -133 -56 -19 7 210 234 251 248 9 4 36 20 60 37
110 80 373 226 477 265 25 10 65 26 89 37 83 37 288 104 456 150 160 43 224
55 420 82 244 33 293 38 455 43 91 3 166 6 167 7 5 4 324 -6 413 -14z"/>
<path d="M3140 2818 c-36 -4 -99 -13 -140 -19 -41 -6 -110 -14 -153 -19 -42
-5 -86 -14 -97 -20 -10 -5 -38 -10 -62 -10 -24 0 -63 -6 -88 -14 -54 -17 -118
-34 -180 -47 -25 -5 -70 -19 -100 -30 -30 -12 -71 -24 -90 -28 -49 -11 -110
-30 -143 -47 -16 -8 -36 -14 -46 -14 -9 0 -26 -7 -37 -15 -10 -8 -27 -15 -37
-15 -11 0 -31 -6 -45 -14 -15 -7 -47 -23 -72 -34 -62 -28 -172 -80 -190 -91
-8 -5 -35 -18 -60 -30 -25 -12 -58 -31 -75 -41 -16 -11 -40 -24 -52 -29 -12
-6 -49 -28 -81 -51 -33 -22 -65 -40 -71 -40 -6 0 -11 -4 -11 -8 0 -4 -39 -37
-87 -72 -172 -127 -452 -425 -513 -545 -6 -11 -19 -33 -30 -50 -20 -32 -55
-100 -75 -150 -7 -16 -20 -47 -29 -68 -9 -21 -16 -49 -16 -63 0 -14 -5 -35
-11 -47 -7 -12 -16 -55 -20 -97 -5 -41 -13 -106 -19 -145 -21 -152 -6 -350 34
-455 7 -19 21 -60 31 -90 9 -30 23 -69 31 -87 8 -17 14 -35 14 -40 0 -11 43
-53 53 -53 10 0 9 44 -2 56 -13 14 -51 131 -51 158 0 13 -7 40 -15 59 -20 50
-20 263 0 331 8 27 15 62 15 77 0 16 7 45 16 66 9 21 23 54 31 73 51 121 152
284 223 360 23 25 58 64 77 88 33 39 59 62 222 191 31 25 58 47 61 51 17 20
114 85 149 100 13 6 38 21 55 33 36 26 53 36 121 71 28 15 58 31 68 36 38 22
54 30 97 50 93 44 176 82 210 97 19 8 48 21 63 29 16 8 33 14 39 14 5 0 24 6
41 14 18 8 41 16 52 19 25 7 103 35 130 46 47 21 193 64 375 111 25 6 66 15
93 20 26 5 62 13 80 19 76 23 285 60 397 72 47 4 103 13 125 18 96 23 253 40
415 45 96 3 200 10 230 16 73 15 562 15 667 0 46 -6 160 -15 255 -20 96 -5
222 -19 283 -30 155 -31 225 -36 225 -18 0 17 -45 39 -125 63 -63 18 -118 37
-173 61 -18 8 -43 14 -55 14 -12 1 -33 7 -47 15 -14 8 -38 15 -55 15 -16 0
-41 7 -55 15 -14 8 -36 14 -49 15 -22 0 -46 6 -185 46 -26 8 -65 14 -86 14
-22 0 -51 5 -66 10 -15 6 -62 15 -103 19 -42 5 -105 14 -141 19 -177 29 -264
33 -660 31 -228 -1 -444 -6 -480 -11z m907 -72 c111 -9 337 -47 349 -59 17
-16 -15 -24 -98 -26 -51 0 -127 -5 -168 -11 -41 -6 -104 -12 -140 -14 -249
-16 -524 -38 -570 -46 -96 -18 -194 -32 -236 -34 -23 -2 -45 -6 -51 -9 -5 -3
-73 -15 -150 -26 -78 -11 -152 -25 -165 -30 -12 -5 -61 -18 -108 -30 -47 -12
-108 -28 -136 -36 -28 -8 -59 -15 -68 -15 -23 0 -240 -71 -396 -130 -173 -65
-208 -79 -257 -104 -29 -14 -59 -26 -67 -26 -7 0 -19 -7 -26 -15 -7 -8 -20
-15 -30 -15 -10 0 -23 -6 -29 -14 -7 -8 -26 -18 -42 -21 -16 -4 -32 -11 -35
-17 -4 -5 -23 -17 -43 -25 -64 -27 -359 -217 -432 -279 -26 -21 -67 -55 -93
-74 -61 -47 -254 -241 -286 -289 -41 -60 -89 -115 -95 -109 -8 8 26 112 55
169 59 116 156 243 284 371 137 137 215 208 277 249 19 14 55 40 80 60 69 55
182 122 331 195 51 25 102 50 112 56 38 20 250 108 262 108 7 0 48 13 91 29
82 31 207 69 308 95 112 28 230 55 265 60 19 2 112 16 205 30 242 38 822 54
1102 32z"/>
</g>
</svg>
