<svg version="1.0" xmlns="http://www.w3.org/2000/svg"
 width="53.000000px" height="64.000000px" viewBox="0 0 53.000000 64.000000"
 preserveAspectRatio="xMidYMid meet">
<g transform="translate(0.000000,64.000000) scale(0.100000,-0.100000)" stroke="none">
<path d="M219 605 c-62 -39 -91 -84 -104 -165 -4 -24 -14 -54 -21 -65 -12 -18
-12 -24 1 -41 13 -18 15 -18 45 -2 l31 18 -3 -37 c-3 -32 -9 -40 -55 -67 -54
-33 -93 -74 -93 -99 0 -9 -4 -19 -10 -22 -17 -10 -12 -101 6 -116 24 -19 48 1
52 44 3 31 9 38 45 56 48 23 167 44 192 35 17 -7 90 12 113 29 6 5 12 20 12
32 0 13 7 36 15 51 10 19 15 58 15 110 0 77 2 85 35 134 19 29 35 58 35 66 0
8 -19 26 -42 41 -37 24 -56 28 -128 31 -83 3 -86 2 -141 -33z m101 3 c0 6 7
12 15 12 8 0 15 -6 15 -12 0 -10 2 -10 9 0 6 11 17 11 55 1 55 -14 64 -24 40
-50 -9 -10 -14 -19 -10 -19 4 0 16 10 26 23 14 17 21 19 30 10 10 -9 5 -21
-20 -51 -19 -24 -29 -45 -25 -52 4 -7 -12 -1 -36 13 -55 31 -89 42 -89 28 0
-6 10 -11 23 -11 27 0 64 -32 78 -67 17 -47 8 -180 -12 -167 -5 3 -9 -13 -9
-35 0 -23 -2 -41 -5 -41 -2 0 -15 10 -29 23 -13 12 -30 27 -36 32 -6 6 -23 24
-36 40 -14 17 -22 23 -18 15 4 -8 13 -22 20 -31 12 -13 6 -15 -56 -15 -59 1
-69 3 -63 16 3 8 9 44 12 80 4 36 10 72 15 80 4 8 -3 2 -18 -15 -14 -16 -25
-27 -26 -23 0 3 -14 -7 -30 -24 -37 -36 -51 -31 -21 8 11 15 21 41 21 58 0 17
9 49 19 71 10 22 16 47 14 55 -4 12 -3 12 5 2 7 -11 12 -11 24 1 26 27 102 57
110 44 6 -9 8 -9 8 1z m28 -384 c39 -16 45 -39 6 -24 -33 13 -159 13 -205 0
-20 -6 -53 -21 -73 -35 -48 -32 -46 -16 3 28 25 22 55 38 78 42 21 4 43 8 48
10 17 7 109 -7 143 -21z m-19 -30 c54 -11 34 -22 -41 -21 -83 0 -141 -10 -133
-24 4 -5 -1 -6 -9 -3 -20 8 -73 -21 -92 -51 -10 -16 -14 -34 -10 -50 4 -14 2
-25 -4 -25 -5 0 -10 6 -10 13 0 8 -4 7 -11 -3 -8 -12 -9 -11 -5 5 2 11 7 35
11 53 8 37 54 77 112 98 40 14 140 18 192 8z"/>
<path d="M244 511 c-17 -10 -41 -35 -53 -54 -29 -48 -27 -60 4 -15 14 20 34
39 45 43 11 4 18 11 14 16 -3 6 6 8 23 4 22 -4 24 -3 8 3 -20 9 -20 9 0 14 12
4 14 6 5 7 -8 0 -29 -8 -46 -18z"/>
<path d="M360 389 c0 -13 49 -101 50 -89 0 3 -11 27 -25 54 -14 27 -25 43 -25
35z"/>
</g>
</svg>