<svg version="1.0" xmlns="http://www.w3.org/2000/svg"
 width="60.000000px" height="60.000000px" viewBox="0 0 37.000000 38.000000"
 preserveAspectRatio="xMidYMid meet">
<g transform="translate(0.000000,38.000000) scale(0.100000,-0.100000)" stroke="none">
<path d="M105 346 c-89 -40 -120 -143 -68 -224 33 -50 75 -72 139 -72 27 0 68
-8 93 -17 43 -17 44 -16 62 6 17 21 17 26 4 58 -8 20 -15 59 -15 87 -1 76 -28
129 -82 155 -50 24 -90 26 -133 7z m124 -30 c52 -28 77 -90 59 -153 -8 -30 -6
-38 11 -57 42 -45 11 -79 -33 -37 -18 17 -27 19 -63 11 -89 -20 -163 37 -163
126 0 46 34 98 74 114 33 14 84 11 115 -4z"/>
<path d="M135 278 c-30 -17 -44 -40 -45 -71 0 -40 15 -63 50 -76 55 -19 100
12 100 70 0 29 -6 43 -31 63 -34 29 -45 31 -74 14z m63 -40 c20 -20 15 -66 -9
-78 -16 -9 -26 -8 -45 5 -41 27 -27 85 21 85 12 0 26 -5 33 -12z"/>
</g>
</svg>
