<svg version="1.0" xmlns="http://www.w3.org/2000/svg"
 height="80%" width="80%" viewBox="0 0 300 300"
 preserveAspectRatio="xMidYMid meet">
<g transform="translate(0.000000,300.000000) scale(0.100000,-0.100000)">
<path d="M1895 2603 c-64 -8 -162 -54 -243 -114 -64 -47 -143 -142 -174 -209
-51 -111 -53 -119 -53 -274 l1 -149 -332 -332 -333 -332 -73 -19 c-40 -10 -80
-23 -88 -29 -8 -6 -27 -17 -43 -25 -46 -23 -111 -95 -148 -162 -33 -61 -34
-66 -34 -178 1 -110 2 -118 33 -179 42 -82 111 -151 193 -193 61 -31 69 -32
179 -32 105 0 119 2 165 26 126 67 193 151 230 291 l18 69 332 332 332 332
149 -1 c155 0 160 1 274 54 66 30 161 110 208 173 44 60 57 83 95 169 36 83
33 327 -4 388 l-20 33 -166 -167 c-146 -147 -169 -166 -192 -162 -31 7 -95 23
-171 45 -61 18 -57 10 -100 172 -26 102 -38 81 145 263 l166 166 -26 17 c-15
10 -48 21 -73 25 -48 8 -192 9 -247 2z m185 -76 c0 -8 -58 -73 -129 -145 -129
-131 -130 -132 -119 -164 5 -18 14 -54 18 -80 5 -26 13 -56 19 -67 6 -11 11
-30 11 -44 0 -13 7 -44 16 -70 14 -41 20 -47 61 -61 26 -9 57 -16 70 -16 14 0
33 -5 44 -11 18 -9 65 -20 155 -36 30 -5 41 4 159 121 70 69 134 126 141 126
20 0 18 -123 -2 -191 -56 -192 -191 -327 -383 -383 -67 -20 -186 -21 -241 -1
-23 8 -47 15 -52 15 -12 0 -712 -699 -725 -725 -6 -11 -14 -45 -18 -75 -9 -65
-33 -113 -85 -172 -57 -64 -154 -108 -240 -108 -183 0 -340 158 -340 342 0 85
44 182 110 240 59 53 103 74 170 83 30 4 64 12 75 18 26 13 725 713 725 725 0
5 -7 29 -15 52 -33 93 -11 250 50 368 36 67 140 171 207 207 79 41 164 63 246
64 54 1 72 -2 72 -12z"/>
<path d="M1506 1757 c-26 -19 -17 -51 17 -55 31 -4 47 20 30 46 -13 22 -26 24
-47 9z"/>
<path d="M1593 1643 c-16 -6 -17 -35 -1 -51 29 -29 66 -2 53 39 -6 18 -26 23
-52 12z"/>
<path d="M1704 1546 c-10 -26 1 -51 23 -54 28 -4 50 32 32 54 -15 18 -48 18
-55 0z"/>
<path d="M1353 1403 c-30 -11 -6 -63 29 -63 19 0 35 41 23 59 -6 11 -31 13
-52 4z"/>
<path d="M1240 1286 c-27 -33 18 -72 48 -42 13 13 14 20 6 34 -15 23 -38 26
-54 8z"/>
<path d="M1124 1164 c-4 -14 -2 -30 4 -36 16 -16 62 -1 62 20 0 44 -56 58 -66
16z"/>
<path d="M678 992 c-10 -8 -41 -36 -69 -64 l-51 -51 0 -99 -1 -100 62 -61 61
-62 98 0 97 0 68 70 69 70 -4 87 -3 88 -66 66 -66 65 -88 2 c-59 1 -94 -2
-107 -11z m204 -109 c39 -39 40 -42 40 -108 1 -65 -1 -68 -38 -106 -35 -35
-45 -39 -99 -43 l-60 -3 -54 53 -54 53 5 56 c4 46 10 62 39 91 45 47 63 54
127 51 47 -3 58 -9 94 -44z"/>
</g>
</svg>
