<svg version="1.0" xmlns="http://www.w3.org/2000/svg"
 width="64.000000px" height="64.000000px" viewBox="0 0 100.000000 100.000000"
 preserveAspectRatio="xMidYMid meet">
<g transform="translate(0.000000,100.000000) scale(0.100000,-0.100000)" stroke="none">
<path d="M206 834 c-47 -62 -49 -64 -68 -47 -18 16 -20 16 -46 -11 l-27 -28
50 -44 c27 -24 52 -44 55 -43 3 0 38 43 79 95 l73 95 -23 25 c-12 13 -27 24
-33 24 -6 -1 -33 -30 -60 -66z m74 17 c0 -5 -25 -41 -56 -80 -58 -74 -69 -78
-104 -36 -17 21 -7 29 19 15 23 -12 38 -1 95 73 27 36 46 47 46 28z"/>
<path d="M380 780 l0 -40 270 0 270 0 0 40 0 40 -270 0 -270 0 0 -40z m510 0
c0 -6 -87 -10 -240 -10 -153 0 -240 4 -240 10 0 6 87 10 240 10 153 0 240 -4
240 -10z"/>
<path d="M206 554 c-47 -62 -49 -64 -68 -47 -18 16 -20 16 -46 -11 l-27 -28
50 -44 c27 -24 52 -44 55 -43 3 0 38 43 79 95 l73 95 -23 25 c-12 13 -27 24
-33 24 -6 -1 -33 -30 -60 -66z m74 17 c0 -5 -25 -41 -56 -80 -58 -74 -69 -78
-104 -36 -16 20 -7 30 16 17 24 -13 52 6 93 63 30 42 51 57 51 36z"/>
<path d="M380 500 l0 -40 270 0 270 0 0 40 0 40 -270 0 -270 0 0 -40z m510 0
c0 -6 -87 -10 -240 -10 -153 0 -240 4 -240 10 0 6 87 10 240 10 153 0 240 -4
240 -10z"/>
<path d="M206 274 c-47 -62 -49 -64 -68 -47 -18 16 -20 16 -46 -11 l-27 -28
50 -44 c27 -24 52 -44 55 -43 3 0 38 43 79 95 l73 95 -23 25 c-12 13 -27 24
-33 24 -6 -1 -33 -30 -60 -66z m74 17 c0 -5 -25 -41 -56 -80 -58 -74 -69 -78
-104 -36 -17 21 -7 29 19 15 23 -12 38 -1 95 73 27 36 46 47 46 28z"/>
<path d="M380 220 l0 -40 270 0 270 0 0 40 0 40 -270 0 -270 0 0 -40z m510 0
c0 -6 -87 -10 -240 -10 -153 0 -240 4 -240 10 0 6 87 10 240 10 153 0 240 -4
240 -10z"/>
</g>
</svg>
