<svg width="610.3249999999999px" height="131.6px" xmlns="http://www.w3.org/2000/svg" viewBox="-55.162499999999966 9.200000000000003 610.3249999999999 131.6" style="background: rgba(0, 0, 0, 0);" preserveAspectRatio="xMidYMid"><defs><filter id="editing-hole" x="-100%" y="-100%" width="300%" height="300%"><feFlood flood-color="#000" result="black"></feFlood><feMorphology operator="dilate" radius="2" in="SourceGraphic" result="erode"></feMorphology><feGaussianBlur in="erode" stdDeviation="4" result="blur"></feGaussianBlur><feOffset in="blur" dx="2" dy="2" result="offset"></feOffset><feComposite operator="atop" in="offset" in2="black" result="merge"></feComposite><feComposite operator="in" in="merge" in2="SourceGraphic" result="inner-shadow"></feComposite></filter></defs><g filter="url(#editing-hole)"><g transform="translate(31.684983253479004, 99.03000068664551)"><path d="M48.69-40.72L48.69 0L40.56 0L40.56-11L12-11L12 0L3.88 0L3.88-22.41L3.88-22.41Q3.88-27.31 5.56-31.44L5.56-31.44L5.56-31.44Q7.25-35.56 10.25-38.53L10.25-38.53L10.25-38.53Q13.25-41.50 17.34-43.16L17.34-43.16L17.34-43.16Q21.44-44.81 26.28-44.81L26.28-44.81L44.59-44.81L44.59-44.81Q45.44-44.81 46.19-44.50L46.19-44.50L46.19-44.50Q46.94-44.19 47.50-43.63L47.50-43.63L47.50-43.63Q48.06-43.06 48.38-42.31L48.38-42.31L48.38-42.31Q48.69-41.56 48.69-40.72L48.69-40.72ZM12-22.41L12-19.13L40.56-19.13L40.56-36.69L26.28-36.69L26.28-36.69Q25.91-36.69 24.70-36.58L24.70-36.58L24.70-36.58Q23.50-36.47 21.92-36.03L21.92-36.03L21.92-36.03Q20.34-35.59 18.59-34.69L18.59-34.69L18.59-34.69Q16.84-33.78 15.38-32.19L15.38-32.19L15.38-32.19Q13.91-30.59 12.95-28.20L12.95-28.20L12.95-28.20Q12-25.81 12-22.41L12-22.41ZM94.09-48.06L94.09-11.41L94.09-11.41Q94.09-9.31 93.56-7.64L93.56-7.64L93.56-7.64Q93.03-5.97 92.16-4.70L92.16-4.70L92.16-4.70Q91.28-3.44 90.13-2.55L90.13-2.55L90.13-2.55Q88.97-1.66 87.70-1.09L87.70-1.09L87.70-1.09Q86.44-0.53 85.14-0.27L85.14-0.27L85.14-0.27Q83.84 0 82.69 0L82.69 0L68.03 0L68.03 0Q65.94 0 64.28-0.53L64.28-0.53L64.28-0.53Q62.63-1.06 61.36-1.95L61.36-1.95L61.36-1.95Q60.09-2.84 59.20-4L59.20-4L59.20-4Q58.31-5.16 57.75-6.42L57.75-6.42L57.75-6.42Q57.19-7.69 56.92-8.98L56.92-8.98L56.92-8.98Q56.66-10.28 56.66-11.41L56.66-11.41L56.66-22.41L56.66-22.41Q56.66-25.53 57.80-27.70L57.80-27.70L57.80-27.70Q58.94-29.88 60.64-31.23L60.64-31.23L60.64-31.23Q62.34-32.59 64.34-33.19L64.34-33.19L64.34-33.19Q66.34-33.78 68.03-33.78L68.03-33.78L82.69-33.78L82.69-25.66L68.09-25.66L68.09-25.66Q66.47-25.66 65.63-24.83L65.63-24.83L65.63-24.83Q64.78-24 64.78-22.41L64.78-22.41L64.78-11.47L64.78-11.47Q64.78-9.81 65.61-8.97L65.61-8.97L65.61-8.97Q66.44-8.13 68.03-8.13L68.03-8.13L82.69-8.13L82.69-8.13Q84.34-8.13 85.16-8.97L85.16-8.97L85.16-8.97Q85.97-9.81 85.97-11.41L85.97-11.41L85.97-48.06L94.09-48.06ZM132-22.41L132 0L123.88 0L123.88-22.41L123.88-22.41Q123.88-24 123.03-24.83L123.03-24.83L123.03-24.83Q122.19-25.66 120.53-25.66L120.53-25.66L109.97-25.66L109.97 0L101.84 0L101.84-29.75L101.84-29.75Q101.84-30.59 102.16-31.33L102.16-31.33L102.16-31.33Q102.47-32.06 103.03-32.61L103.03-32.61L103.03-32.61Q103.59-33.16 104.34-33.47L104.34-33.47L104.34-33.47Q105.09-33.78 105.94-33.78L105.94-33.78L120.59-33.78L120.59-33.78Q122.28-33.78 124.22-33.19L124.22-33.19L124.22-33.19Q126.16-32.59 127.91-31.28L127.91-31.28L127.91-33.78L138.91-33.78L138.91-33.78Q140.06-33.78 141.34-33.52L141.34-33.52L141.34-33.52Q142.63-33.25 143.89-32.69L143.89-32.69L143.89-32.69Q145.16-32.13 146.31-31.23L146.31-31.23L146.31-31.23Q147.47-30.34 148.34-29.08L148.34-29.08L148.34-29.08Q149.22-27.81 149.75-26.16L149.75-26.16L149.75-26.16Q150.28-24.50 150.28-22.41L150.28-22.41L150.28 0L142.16 0L142.16-22.41L142.16-22.41Q142.16-24 141.36-24.83L141.36-24.83L141.36-24.83Q140.56-25.66 138.91-25.66L138.91-25.66L131.59-25.66L131.59-25.66Q132-24.16 132-22.41L132-22.41ZM166-48.06L166-40.72L157.88-40.72L157.88-48.06L166-48.06ZM166-33.78L166 0L157.88 0L157.88-33.78L166-33.78ZM211.22-18.75L211.22 0L203.09 0L203.09-18.75L203.09-18.75Q203.09-20.34 202.55-21.61L202.55-21.61L202.55-21.61Q202-22.88 201.06-23.78L201.06-23.78L201.06-23.78Q200.13-24.69 198.86-25.17L198.86-25.17L198.86-25.17Q197.59-25.66 196.13-25.66L196.13-25.66L181.91-25.66L181.91 0L173.78 0L173.78-29.75L173.78-29.75Q173.78-30.59 174.09-31.33L174.09-31.33L174.09-31.33Q174.41-32.06 174.97-32.61L174.97-32.61L174.97-32.61Q175.53-33.16 176.28-33.47L176.28-33.47L176.28-33.47Q177.03-33.78 177.88-33.78L177.88-33.78L196.19-33.78L196.19-33.78Q197.72-33.78 199.42-33.44L199.42-33.44L199.42-33.44Q201.13-33.09 202.80-32.33L202.80-32.33L202.80-32.33Q204.47-31.56 205.98-30.39L205.98-30.39L205.98-30.39Q207.50-29.22 208.67-27.55L208.67-27.55L208.67-27.55Q209.84-25.88 210.53-23.69L210.53-23.69L210.53-23.69Q211.22-21.50 211.22-18.75L211.22-18.75ZM284.72-29.75L284.72-26.06L284.72-26.06Q284.72-23.28 284.03-21.09L284.03-21.09L284.03-21.09Q283.34-18.91 282.17-17.23L282.17-17.23L282.17-17.23Q281-15.56 279.47-14.38L279.47-14.38L279.47-14.38Q277.94-13.19 276.27-12.44L276.27-12.44L276.27-12.44Q274.59-11.69 272.89-11.34L272.89-11.34L272.89-11.34Q271.19-11 269.69-11L269.69-11L251.31-11L251.31-19.13L269.69-19.13L269.69-19.13Q271.25-19.25 272.52-19.77L272.52-19.77L272.52-19.77Q273.78-20.28 274.69-21.16L274.69-21.16L274.69-21.16Q275.59-22.03 276.09-23.27L276.09-23.27L276.09-23.27Q276.59-24.50 276.59-26.06L276.59-26.06L276.59-29.75L276.59-29.75Q276.44-31.28 275.94-32.56L275.94-32.56L275.94-32.56Q275.44-33.84 274.58-34.75L274.58-34.75L274.58-34.75Q273.72-35.66 272.50-36.17L272.50-36.17L272.50-36.17Q271.28-36.69 269.69-36.69L269.69-36.69L251.38-36.69L251.38-36.69Q249.75-36.69 248.91-35.84L248.91-35.84L248.91-35.84Q248.06-35 248.06-33.41L248.06-33.41L248.06 0L239.94 0L239.94-33.41L239.94-33.41Q239.94-36.53 241.08-38.72L241.08-38.72L241.08-38.72Q242.22-40.91 243.92-42.25L243.92-42.25L243.92-42.25Q245.63-43.59 247.63-44.20L247.63-44.20L247.63-44.20Q249.63-44.81 251.31-44.81L251.31-44.81L269.69-44.81L269.69-44.81Q272.44-44.81 274.63-44.11L274.63-44.11L274.63-44.11Q276.81-43.41 278.48-42.23L278.48-42.23L278.48-42.23Q280.16-41.06 281.33-39.53L281.33-39.53L281.33-39.53Q282.50-38 283.27-36.33L283.27-36.33L283.27-36.33Q284.03-34.66 284.38-32.95L284.38-32.95L284.38-32.95Q284.72-31.25 284.72-29.75L284.72-29.75ZM324.59-22.59L324.59-11.19L324.59-11.19Q324.59-9.50 324-7.55L324-7.55L324-7.55Q323.41-5.59 322.08-3.92L322.08-3.92L322.08-3.92Q320.75-2.25 318.61-1.13L318.61-1.13L318.61-1.13Q316.47 0 313.41 0L313.41 0L298.75 0L298.75 0Q297.06 0 295.11-0.59L295.11-0.59L295.11-0.59Q293.16-1.19 291.48-2.52L291.48-2.52L291.48-2.52Q289.81-3.84 288.69-5.98L288.69-5.98L288.69-5.98Q287.56-8.13 287.56-11.19L287.56-11.19L287.56-11.19Q287.56-12.88 288.16-14.84L288.16-14.84L288.16-14.84Q288.75-16.81 290.08-18.48L290.08-18.48L290.08-18.48Q291.41-20.16 293.55-21.28L293.55-21.28L293.55-21.28Q295.69-22.41 298.75-22.41L298.75-22.41L313.41-22.41L313.41-14.66L298.75-14.66L298.75-14.66Q297.09-14.66 296.19-13.64L296.19-13.64L296.19-13.64Q295.28-12.63 295.28-11.13L295.28-11.13L295.28-11.13Q295.28-9.53 296.33-8.64L296.33-8.64L296.33-8.64Q297.38-7.75 298.81-7.75L298.81-7.75L313.41-7.75L313.41-7.75Q315.06-7.75 315.97-8.75L315.97-8.75L315.97-8.75Q316.88-9.75 316.88-11.25L316.88-11.25L316.88-22.59L316.88-22.59Q316.88-24.19 315.89-25.13L315.89-25.13L315.89-25.13Q314.91-26.06 313.41-26.06L313.41-26.06L295.56-26.06L295.56-33.78L313.41-33.78L313.41-33.78Q315.09-33.78 317.05-33.19L317.05-33.19L317.05-33.19Q319-32.59 320.67-31.27L320.67-31.27L320.67-31.27Q322.34-29.94 323.47-27.80L323.47-27.80L323.47-27.80Q324.59-25.66 324.59-22.59L324.59-22.59ZM368.97-18.75L368.97 0L360.84 0L360.84-18.75L360.84-18.75Q360.84-20.34 360.30-21.61L360.30-21.61L360.30-21.61Q359.75-22.88 358.81-23.78L358.81-23.78L358.81-23.78Q357.88-24.69 356.61-25.17L356.61-25.17L356.61-25.17Q355.34-25.66 353.88-25.66L353.88-25.66L339.66-25.66L339.66 0L331.53 0L331.53-29.75L331.53-29.75Q331.53-30.59 331.84-31.33L331.84-31.33L331.84-31.33Q332.16-32.06 332.72-32.61L332.72-32.61L332.72-32.61Q333.28-33.16 334.03-33.47L334.03-33.47L334.03-33.47Q334.78-33.78 335.63-33.78L335.63-33.78L353.94-33.78L353.94-33.78Q355.47-33.78 357.17-33.44L357.17-33.44L357.17-33.44Q358.88-33.09 360.55-32.33L360.55-32.33L360.55-32.33Q362.22-31.56 363.73-30.39L363.73-30.39L363.73-30.39Q365.25-29.22 366.42-27.55L366.42-27.55L366.42-27.55Q367.59-25.88 368.28-23.69L368.28-23.69L368.28-23.69Q368.97-21.50 368.97-18.75L368.97-18.75ZM412.44-22.59L412.44-22.59L412.44-22.59Q412.44-20.91 411.84-18.95L411.84-18.95L411.84-18.95Q411.25-17 409.92-15.33L409.92-15.33L409.92-15.33Q408.59-13.66 406.45-12.53L406.45-12.53L406.45-12.53Q404.31-11.41 401.25-11.41L401.25-11.41L386.59-11.41L386.59-19.13L401.25-19.13L401.25-19.13Q402.91-19.13 403.81-20.14L403.81-20.14L403.81-20.14Q404.72-21.16 404.72-22.66L404.72-22.66L404.72-22.66Q404.72-24.25 403.70-25.16L403.70-25.16L403.70-25.16Q402.69-26.06 401.25-26.06L401.25-26.06L386.59-26.06L386.59-26.06Q384.94-26.06 384.03-25.05L384.03-25.05L384.03-25.05Q383.13-24.03 383.13-22.53L383.13-22.53L383.13-11.19L383.13-11.19Q383.13-9.56 384.14-8.66L384.14-8.66L384.14-8.66Q385.16-7.75 386.66-7.75L386.66-7.75L401.25-7.75L401.25 0L386.59 0L386.59 0Q384.91 0 382.95-0.59L382.95-0.59L382.95-0.59Q381-1.19 379.33-2.52L379.33-2.52L379.33-2.52Q377.66-3.84 376.53-5.98L376.53-5.98L376.53-5.98Q375.41-8.13 375.41-11.19L375.41-11.19L375.41-22.59L375.41-22.59Q375.41-24.28 376-26.23L376-26.23L376-26.23Q376.59-28.19 377.92-29.86L377.92-29.86L377.92-29.86Q379.25-31.53 381.39-32.66L381.39-32.66L381.39-32.66Q383.53-33.78 386.59-33.78L386.59-33.78L401.25-33.78L401.25-33.78Q402.94-33.78 404.89-33.19L404.89-33.19L404.89-33.19Q406.84-32.59 408.52-31.27L408.52-31.27L408.52-31.27Q410.19-29.94 411.31-27.80L411.31-27.80L411.31-27.80Q412.44-25.66 412.44-22.59ZM432.75-8.13L432.75 0L429.13 0L429.13 0Q427.38 0 425.39-0.59L425.39-0.59L425.39-0.59Q423.41-1.19 421.69-2.55L421.69-2.55L421.69-2.55Q419.97-3.91 418.84-6.08L418.84-6.08L418.84-6.08Q417.72-8.25 417.72-11.41L417.72-11.41L417.72-48.06L425.84-48.06L425.84-11.41L425.84-11.41Q425.84-9.91 426.78-9.02L426.78-9.02L426.78-9.02Q427.72-8.13 429.13-8.13L429.13-8.13L432.75-8.13Z" fill="#ccc"></path></g></g><style>text {font-size: 64px;font-family: Arial Black;dominant-baseline: central;text-anchor: middle;}</style></svg>