<?xml version="1.0" standalone="no"?>
<!DOCTYPE svg PUBLIC "-//W3C//DTD SVG 20010904//EN"
 "http://www.w3.org/TR/2001/REC-SVG-20010904/DTD/svg10.dtd">
<svg version="1.0" xmlns="http://www.w3.org/2000/svg"
 width="26.000000pt" height="26.000000pt" viewBox="0 0 26.000000 26.000000"
 preserveAspectRatio="xMidYMid meet">
<metadata>
Created by potrace 1.10, written by Peter Selinger 2001-2011
</metadata>
<g transform="translate(0.000000,26.000000) scale(0.100000,-0.100000)"
fill="#d9d9d9" stroke="none">
<path d="M86 215 c-4 -11 -13 -14 -31 -9 -42 10 -55 -10 -55 -87 0 -94 7 -99
130 -99 121 0 130 6 130 90 0 60 -15 90 -46 90 -8 0 -17 7 -20 15 -9 21 -100
21 -108 0z m-36 -35 c0 -5 -4 -10 -10 -10 -5 0 -10 5 -10 10 0 6 5 10 10 10 6
0 10 -4 10 -10z m137 -12 c29 -27 29 -65 1 -95 -27 -29 -65 -29 -95 -1 -29 27
-29 65 -1 95 27 29 65 29 95 1z"/>
<path d="M107 152 c-22 -24 -21 -45 1 -65 24 -22 45 -21 65 1 22 24 21 45 -1
65 -24 22 -45 21 -65 -1z"/>
</g>
</svg>
