<svg version="1.0" xmlns="http://www.w3.org/2000/svg" viewBox="0 0 64 64" width="36px" height="36px" 
preserveAspectRatio="xMidYMid meet">
<g transform="translate(0.000000,64.000000) scale(0.100000,-0.100000)" 
stroke="none">
<path d="M206 616 c-78 -29 -166 -123 -187 -199 -6 -23 -9 -78 -7 -123 3 -65
10 -90 31 -126 35 -61 107 -123 164 -142 60 -20 166 -20 226 0 57 19 129 81
165 142 25 43 27 56 27 152 0 117 -8 140 -72 211 -64 71 -114 93 -218 96 -60
2 -103 -1 -129 -11z m204 -28 c73 -23 131 -72 168 -143 37 -71 37 -179 0 -250
-54 -103 -146 -159 -258 -159 -246 0 -379 285 -219 467 78 89 191 120 309 85z"/>
<path d="M181 474 c-41 -34 -39 -58 8 -114 l40 -47 -40 -39 c-21 -21 -39 -47
-39 -58 0 -21 46 -76 64 -76 6 0 31 18 55 40 24 22 46 40 48 40 3 0 25 -18 50
-40 25 -22 51 -40 58 -40 18 0 65 54 65 75 0 11 -18 38 -40 60 l-40 41 40 44
c44 50 47 65 24 98 -32 46 -50 46 -98 2 -24 -22 -50 -40 -58 -40 -8 0 -27 14
-44 31 -47 49 -58 52 -93 23z m191 -56 l51 53 24 -23 23 -22 -52 -53 -52 -53
52 -53 52 -53 -22 -22 -22 -22 -53 52 -53 52 -53 -52 -53 -52 -22 23 -23 24
53 51 53 51 -52 53 -53 54 22 22 22 22 54 -53 53 -52 51 53z"/></g></svg>