<svg version="1.0" xmlns="http://www.w3.org/2000/svg"
 width="24px" height="24px" viewBox="0 0 32.000000 32.000000"
 preserveAspectRatio="xMidYMid meet">
<g transform="translate(0.000000,32.000000) scale(0.100000,-0.100000)"
 stroke="none">
<path d="M72 277 c-26 -28 -28 -63 -6 -89 16 -16 15 -18 0 -24 -28 -11 -59
-84 -36 -84 6 0 10 7 10 15 0 27 47 65 79 65 31 0 49 -14 31 -25 -19 -12 -11
-65 15 -90 49 -50 135 -15 135 55 0 57 -81 105 -117 69 -7 -7 -13 -7 -17 -1
-3 5 1 15 9 22 22 19 18 63 -8 88 -30 28 -68 28 -95 -1z m82 -13 c31 -30 9
-84 -34 -84 -24 0 -50 26 -50 50 0 24 26 50 50 50 10 0 26 -7 34 -16z m106
-124 c11 -11 20 -29 20 -40 0 -26 -34 -60 -60 -60 -26 0 -60 34 -60 60 0 26
34 60 60 60 11 0 29 -9 40 -20z"/>
<path d="M210 125 c0 -8 -7 -15 -15 -15 -8 0 -15 -4 -15 -10 0 -5 7 -10 15
-10 8 0 15 -7 15 -15 0 -8 5 -15 10 -15 6 0 10 7 10 15 0 8 7 15 15 15 8 0 15
5 15 10 0 6 -7 10 -15 10 -8 0 -15 7 -15 15 0 8 -4 15 -10 15 -5 0 -10 -7 -10
-15z"/>
</g>
</svg>